# station 2

mtllib station.mtl

o obj1
v 25 26 4
v 25 25 5
v 25 25 4
v 25 26 5
usemtl mat0
f 1 2 3
f 2 1 4
# Vertices: 4, normals: 0, texture coordinates: 0, faces: 2

o obj2
v 0 5 0
v 80 5 -1
v 0 5 -1
v 80 5 0
usemtl mat1
f 5 6 7
f 6 5 8
# Vertices: 4, normals: 0, texture coordinates: 0, faces: 2

o obj3
v 80 5 -3
v 0 17 -3
v 0 5 -3
v 80 17 -3
usemtl mat2
f 9 10 11
f 10 9 12
# Vertices: 4, normals: 0, texture coordinates: 0, faces: 2

o obj4
v 80 15 0
v 0 15 -1
v 80 15 -1
v 0 15 0
usemtl mat3
f 13 14 15
f 14 13 16
# Vertices: 4, normals: 0, texture coordinates: 0, faces: 2

o obj5
v 80 -0 0
v 0 4 0
v 0 0 0
v 80 4 0
usemtl mat4
f 17 18 19
f 18 17 20
# Vertices: 4, normals: 0, texture coordinates: 0, faces: 2

o obj6
v 80 17 -1
v 0 17 -3
v 80 17 -3
v 0 17 -1
usemtl mat4
f 21 22 23
f 22 21 24
# Vertices: 4, normals: 0, texture coordinates: 0, faces: 2

o obj7
v 80 15 0
v 0 16 0
v 0 15 0
v 80 16 0
usemtl mat1
f 25 26 27
f 26 25 28
# Vertices: 4, normals: 0, texture coordinates: 0, faces: 2

o obj8
v 80 4 0
v 0 5 0
v 0 4 0
v 80 5 0
usemtl mat1
f 29 30 31
f 30 29 32
# Vertices: 4, normals: 0, texture coordinates: 0, faces: 2

o obj9
v 0 5 -1
v 80 5 -3
v 0 5 -3
v 80 5 -1
usemtl mat4
f 33 34 35
f 34 33 36
# Vertices: 4, normals: 0, texture coordinates: 0, faces: 2

o obj10
v 25 25 7
v 24 25 6
v 25 25 6
v 24 25 7
usemtl mat0
f 37 38 39
f 38 37 40
# Vertices: 4, normals: 0, texture coordinates: 0, faces: 2

o obj11
v 25 25 1
v 24 25 0
v 25 25 0
v 24 25 1
usemtl mat0
f 41 42 43
f 42 41 44
# Vertices: 4, normals: 0, texture coordinates: 0, faces: 2

o obj12
v 25 25 6
v 24 25 5
v 25 25 5
v 24 25 6
usemtl mat5
f 45 46 47
f 46 45 48
# Vertices: 4, normals: 0, texture coordinates: 0, faces: 2

o obj13
v 25 25 5
v 24 25 4
v 25 25 4
v 24 25 5
usemtl mat0
f 49 50 51
f 50 49 52
# Vertices: 4, normals: 0, texture coordinates: 0, faces: 2

o obj14
v 25 25 4
v 24 25 3
v 25 25 3
v 24 25 4
usemtl mat5
f 53 54 55
f 54 53 56
# Vertices: 4, normals: 0, texture coordinates: 0, faces: 2

o obj15
v 25 25 3
v 24 25 2
v 25 25 2
v 24 25 3
usemtl mat0
f 57 58 59
f 58 57 60
# Vertices: 4, normals: 0, texture coordinates: 0, faces: 2

o obj16
v 25 25 2
v 24 25 1
v 25 25 1
v 24 25 2
usemtl mat5
f 61 62 63
f 62 61 64
# Vertices: 4, normals: 0, texture coordinates: 0, faces: 2

o obj17
v 73 25 4
v 72 25 3
v 73 25 3
v 72 25 4
usemtl mat6
f 65 66 67
f 66 65 68
# Vertices: 4, normals: 0, texture coordinates: 0, faces: 2

o obj18
v 72 25 7
v 71 25 6
v 72 25 6
v 71 25 7
usemtl mat6
f 69 70 71
f 70 69 72
# Vertices: 4, normals: 0, texture coordinates: 0, faces: 2

o obj19
v 73 25 2
v 72 25 1
v 73 25 1
v 72 25 2
usemtl mat6
f 73 74 75
f 74 73 76
# Vertices: 4, normals: 0, texture coordinates: 0, faces: 2

o obj20
v 72 25 4
v 71 25 3
v 72 25 3
v 71 25 4
usemtl mat0
f 77 78 79
f 78 77 80
# Vertices: 4, normals: 0, texture coordinates: 0, faces: 2

o obj21
v 72 25 5
v 71 25 4
v 72 25 4
v 71 25 5
usemtl mat6
f 81 82 83
f 82 81 84
# Vertices: 4, normals: 0, texture coordinates: 0, faces: 2

o obj22
v 73 25 6
v 72 25 5
v 73 25 5
v 72 25 6
usemtl mat6
f 85 86 87
f 86 85 88
# Vertices: 4, normals: 0, texture coordinates: 0, faces: 2

o obj23
v 72 25 3
v 71 25 2
v 72 25 2
v 71 25 3
usemtl mat6
f 89 90 91
f 90 89 92
# Vertices: 4, normals: 0, texture coordinates: 0, faces: 2

o obj24
v 80 25 1
v 79 25 0
v 80 25 0
v 79 25 1
usemtl mat6
f 93 94 95
f 94 93 96
# Vertices: 4, normals: 0, texture coordinates: 0, faces: 2

o obj25
v 77 25 7
v 76 25 6
v 77 25 6
v 76 25 7
usemtl mat0
f 97 98 99
f 98 97 100
# Vertices: 4, normals: 0, texture coordinates: 0, faces: 2

o obj26
v 77 25 1
v 76 25 0
v 77 25 0
v 76 25 1
usemtl mat0
f 101 102 103
f 102 101 104
# Vertices: 4, normals: 0, texture coordinates: 0, faces: 2

o obj27
v 77 25 6
v 76 25 5
v 77 25 5
v 76 25 6
usemtl mat6
f 105 106 107
f 106 105 108
# Vertices: 4, normals: 0, texture coordinates: 0, faces: 2

o obj28
v 77 25 5
v 76 25 4
v 77 25 4
v 76 25 5
usemtl mat0
f 109 110 111
f 110 109 112
# Vertices: 4, normals: 0, texture coordinates: 0, faces: 2

o obj29
v 79 25 4
v 78 25 3
v 79 25 3
v 78 25 4
usemtl mat6
f 113 114 115
f 114 113 116
# Vertices: 4, normals: 0, texture coordinates: 0, faces: 2

o obj30
v 77 25 2
v 76 25 1
v 77 25 1
v 76 25 2
usemtl mat6
f 117 118 119
f 118 117 120
# Vertices: 4, normals: 0, texture coordinates: 0, faces: 2

o obj31
v 77 25 4
v 76 25 3
v 77 25 3
v 76 25 4
usemtl mat6
f 121 122 123
f 122 121 124
# Vertices: 4, normals: 0, texture coordinates: 0, faces: 2

o obj32
v 78 25 7
v 77 25 6
v 78 25 6
v 77 25 7
usemtl mat6
f 125 126 127
f 126 125 128
# Vertices: 4, normals: 0, texture coordinates: 0, faces: 2

o obj33
v 76 25 7
v 75 25 6
v 76 25 6
v 75 25 7
usemtl mat6
f 129 130 131
f 130 129 132
# Vertices: 4, normals: 0, texture coordinates: 0, faces: 2

o obj34
v 76 25 1
v 75 25 0
v 76 25 0
v 75 25 1
usemtl mat6
f 133 134 135
f 134 133 136
# Vertices: 4, normals: 0, texture coordinates: 0, faces: 2

o obj35
v 76 25 6
v 75 25 5
v 76 25 5
v 75 25 6
usemtl mat0
f 137 138 139
f 138 137 140
# Vertices: 4, normals: 0, texture coordinates: 0, faces: 2

o obj36
v 76 25 5
v 75 25 4
v 76 25 4
v 75 25 5
usemtl mat6
f 141 142 143
f 142 141 144
# Vertices: 4, normals: 0, texture coordinates: 0, faces: 2

o obj37
v 73 25 5
v 72 25 4
v 73 25 4
v 72 25 5
usemtl mat0
f 145 146 147
f 146 145 148
# Vertices: 4, normals: 0, texture coordinates: 0, faces: 2

o obj38
v 72 25 1
v 71 25 0
v 72 25 0
v 71 25 1
usemtl mat6
f 149 150 151
f 150 149 152
# Vertices: 4, normals: 0, texture coordinates: 0, faces: 2

o obj39
v 72 25 6
v 71 25 5
v 72 25 5
v 71 25 6
usemtl mat0
f 153 154 155
f 154 153 156
# Vertices: 4, normals: 0, texture coordinates: 0, faces: 2

o obj40
v 79 25 7
v 78 25 6
v 79 25 6
v 78 25 7
usemtl mat0
f 157 158 159
f 158 157 160
# Vertices: 4, normals: 0, texture coordinates: 0, faces: 2

o obj41
v 79 25 3
v 78 25 2
v 79 25 2
v 78 25 3
usemtl mat0
f 161 162 163
f 162 161 164
# Vertices: 4, normals: 0, texture coordinates: 0, faces: 2

o obj42
v 79 25 2
v 78 25 1
v 79 25 1
v 78 25 2
usemtl mat6
f 165 166 167
f 166 165 168
# Vertices: 4, normals: 0, texture coordinates: 0, faces: 2

o obj43
v 77 25 3
v 76 25 2
v 77 25 2
v 76 25 3
usemtl mat0
f 169 170 171
f 170 169 172
# Vertices: 4, normals: 0, texture coordinates: 0, faces: 2

o obj44
v 80 25 2
v 79 25 1
v 80 25 1
v 79 25 2
usemtl mat0
f 173 174 175
f 174 173 176
# Vertices: 4, normals: 0, texture coordinates: 0, faces: 2

o obj45
v 80 25 7
v 79 25 6
v 80 25 6
v 79 25 7
usemtl mat6
f 177 178 179
f 178 177 180
# Vertices: 4, normals: 0, texture coordinates: 0, faces: 2

o obj46
v 80 25 6
v 79 25 5
v 80 25 5
v 79 25 6
usemtl mat0
f 181 182 183
f 182 181 184
# Vertices: 4, normals: 0, texture coordinates: 0, faces: 2

o obj47
v 73 25 7
v 72 25 6
v 73 25 6
v 72 25 7
usemtl mat0
f 185 186 187
f 186 185 188
# Vertices: 4, normals: 0, texture coordinates: 0, faces: 2

o obj48
v 74 25 4
v 73 25 3
v 74 25 3
v 73 25 4
usemtl mat0
f 189 190 191
f 190 189 192
# Vertices: 4, normals: 0, texture coordinates: 0, faces: 2

o obj49
v 79 25 1
v 78 25 0
v 79 25 0
v 78 25 1
usemtl mat0
f 193 194 195
f 194 193 196
# Vertices: 4, normals: 0, texture coordinates: 0, faces: 2

o obj50
v 74 25 2
v 73 25 1
v 74 25 1
v 73 25 2
usemtl mat0
f 197 198 199
f 198 197 200
# Vertices: 4, normals: 0, texture coordinates: 0, faces: 2

o obj51
v 78 25 2
v 77 25 1
v 78 25 1
v 77 25 2
usemtl mat0
f 201 202 203
f 202 201 204
# Vertices: 4, normals: 0, texture coordinates: 0, faces: 2

o obj52
v 78 25 1
v 77 25 0
v 78 25 0
v 77 25 1
usemtl mat6
f 205 206 207
f 206 205 208
# Vertices: 4, normals: 0, texture coordinates: 0, faces: 2

o obj53
v 72 25 2
v 71 25 1
v 72 25 1
v 71 25 2
usemtl mat0
f 209 210 211
f 210 209 212
# Vertices: 4, normals: 0, texture coordinates: 0, faces: 2

o obj54
v 74 25 7
v 73 25 6
v 74 25 6
v 73 25 7
usemtl mat6
f 213 214 215
f 214 213 216
# Vertices: 4, normals: 0, texture coordinates: 0, faces: 2

o obj55
v 73 25 3
v 72 25 2
v 73 25 2
v 72 25 3
usemtl mat0
f 217 218 219
f 218 217 220
# Vertices: 4, normals: 0, texture coordinates: 0, faces: 2

o obj56
v 76 25 3
v 75 25 2
v 76 25 2
v 75 25 3
usemtl mat6
f 221 222 223
f 222 221 224
# Vertices: 4, normals: 0, texture coordinates: 0, faces: 2

o obj57
v 76 25 2
v 75 25 1
v 76 25 1
v 75 25 2
usemtl mat0
f 225 226 227
f 226 225 228
# Vertices: 4, normals: 0, texture coordinates: 0, faces: 2

o obj58
v 78 25 6
v 77 25 5
v 78 25 5
v 77 25 6
usemtl mat0
f 229 230 231
f 230 229 232
# Vertices: 4, normals: 0, texture coordinates: 0, faces: 2

o obj59
v 78 25 5
v 77 25 4
v 78 25 4
v 77 25 5
usemtl mat6
f 233 234 235
f 234 233 236
# Vertices: 4, normals: 0, texture coordinates: 0, faces: 2

o obj60
v 78 25 4
v 77 25 3
v 78 25 3
v 77 25 4
usemtl mat0
f 237 238 239
f 238 237 240
# Vertices: 4, normals: 0, texture coordinates: 0, faces: 2

o obj61
v 73 25 1
v 72 25 0
v 73 25 0
v 72 25 1
usemtl mat0
f 241 242 243
f 242 241 244
# Vertices: 4, normals: 0, texture coordinates: 0, faces: 2

o obj62
v 74 25 1
v 73 25 0
v 74 25 0
v 73 25 1
usemtl mat6
f 245 246 247
f 246 245 248
# Vertices: 4, normals: 0, texture coordinates: 0, faces: 2

o obj63
v 74 25 6
v 73 25 5
v 74 25 5
v 73 25 6
usemtl mat0
f 249 250 251
f 250 249 252
# Vertices: 4, normals: 0, texture coordinates: 0, faces: 2

o obj64
v 74 25 3
v 73 25 2
v 74 25 2
v 73 25 3
usemtl mat6
f 253 254 255
f 254 253 256
# Vertices: 4, normals: 0, texture coordinates: 0, faces: 2

o obj65
v 74 25 5
v 73 25 4
v 74 25 4
v 73 25 5
usemtl mat6
f 257 258 259
f 258 257 260
# Vertices: 4, normals: 0, texture coordinates: 0, faces: 2

o obj66
v 79 25 6
v 78 25 5
v 79 25 5
v 78 25 6
usemtl mat6
f 261 262 263
f 262 261 264
# Vertices: 4, normals: 0, texture coordinates: 0, faces: 2

o obj67
v 79 25 5
v 78 25 4
v 79 25 4
v 78 25 5
usemtl mat0
f 265 266 267
f 266 265 268
# Vertices: 4, normals: 0, texture coordinates: 0, faces: 2

o obj68
v 76 25 4
v 75 25 3
v 76 25 3
v 75 25 4
usemtl mat0
f 269 270 271
f 270 269 272
# Vertices: 4, normals: 0, texture coordinates: 0, faces: 2

o obj69
v 78 25 3
v 77 25 2
v 78 25 2
v 77 25 3
usemtl mat6
f 273 274 275
f 274 273 276
# Vertices: 4, normals: 0, texture coordinates: 0, faces: 2

o obj70
v 80 25 4
v 79 25 3
v 80 25 3
v 79 25 4
usemtl mat0
f 277 278 279
f 278 277 280
# Vertices: 4, normals: 0, texture coordinates: 0, faces: 2

o obj71
v 80 25 5
v 79 25 4
v 80 25 4
v 79 25 5
usemtl mat6
f 281 282 283
f 282 281 284
# Vertices: 4, normals: 0, texture coordinates: 0, faces: 2

o obj72
v 80 25 3
v 79 25 2
v 80 25 2
v 79 25 3
usemtl mat6
f 285 286 287
f 286 285 288
# Vertices: 4, normals: 0, texture coordinates: 0, faces: 2

o obj73
v 75 25 1
v 74 25 0
v 75 25 0
v 74 25 1
usemtl mat0
f 289 290 291
f 290 289 292
# Vertices: 4, normals: 0, texture coordinates: 0, faces: 2

o obj74
v 75 25 6
v 74 25 5
v 75 25 5
v 74 25 6
usemtl mat6
f 293 294 295
f 294 293 296
# Vertices: 4, normals: 0, texture coordinates: 0, faces: 2

o obj75
v 75 25 2
v 74 25 1
v 75 25 1
v 74 25 2
usemtl mat6
f 297 298 299
f 298 297 300
# Vertices: 4, normals: 0, texture coordinates: 0, faces: 2

o obj76
v 75 25 5
v 74 25 4
v 75 25 4
v 74 25 5
usemtl mat0
f 301 302 303
f 302 301 304
# Vertices: 4, normals: 0, texture coordinates: 0, faces: 2

o obj77
v 75 25 3
v 74 25 2
v 75 25 2
v 74 25 3
usemtl mat0
f 305 306 307
f 306 305 308
# Vertices: 4, normals: 0, texture coordinates: 0, faces: 2

o obj78
v 75 25 4
v 74 25 3
v 75 25 3
v 74 25 4
usemtl mat6
f 309 310 311
f 310 309 312
# Vertices: 4, normals: 0, texture coordinates: 0, faces: 2

o obj79
v 75 25 7
v 74 25 6
v 75 25 6
v 74 25 7
usemtl mat0
f 313 314 315
f 314 313 316
# Vertices: 4, normals: 0, texture coordinates: 0, faces: 2

o obj80
v 31 25 7
v 30 25 6
v 31 25 6
v 30 25 7
usemtl mat0
f 317 318 319
f 318 317 320
# Vertices: 4, normals: 0, texture coordinates: 0, faces: 2

o obj81
v 33 25 7
v 32 25 6
v 33 25 6
v 32 25 7
usemtl mat0
f 321 322 323
f 322 321 324
# Vertices: 4, normals: 0, texture coordinates: 0, faces: 2

o obj82
v 32 25 6
v 31 25 5
v 32 25 5
v 31 25 6
usemtl mat0
f 325 326 327
f 326 325 328
# Vertices: 4, normals: 0, texture coordinates: 0, faces: 2

o obj83
v 27 25 7
v 26 25 6
v 27 25 6
v 26 25 7
usemtl mat0
f 329 330 331
f 330 329 332
# Vertices: 4, normals: 0, texture coordinates: 0, faces: 2

o obj84
v 27 25 6
v 26 25 5
v 27 25 5
v 26 25 6
usemtl mat5
f 333 334 335
f 334 333 336
# Vertices: 4, normals: 0, texture coordinates: 0, faces: 2

o obj85
v 26 25 7
v 25 25 6
v 26 25 6
v 25 25 7
usemtl mat5
f 337 338 339
f 338 337 340
# Vertices: 4, normals: 0, texture coordinates: 0, faces: 2

o obj86
v 26 25 6
v 25 25 5
v 26 25 5
v 25 25 6
usemtl mat0
f 341 342 343
f 342 341 344
# Vertices: 4, normals: 0, texture coordinates: 0, faces: 2

o obj87
v 29 25 7
v 28 25 6
v 29 25 6
v 28 25 7
usemtl mat0
f 345 346 347
f 346 345 348
# Vertices: 4, normals: 0, texture coordinates: 0, faces: 2

o obj88
v 29 25 6
v 28 25 5
v 29 25 5
v 28 25 6
usemtl mat5
f 349 350 351
f 350 349 352
# Vertices: 4, normals: 0, texture coordinates: 0, faces: 2

o obj89
v 30 25 7
v 29 25 6
v 30 25 6
v 29 25 7
usemtl mat5
f 353 354 355
f 354 353 356
# Vertices: 4, normals: 0, texture coordinates: 0, faces: 2

o obj90
v 33 25 6
v 32 25 5
v 33 25 5
v 32 25 6
usemtl mat5
f 357 358 359
f 358 357 360
# Vertices: 4, normals: 0, texture coordinates: 0, faces: 2

o obj91
v 32 25 7
v 31 25 6
v 32 25 6
v 31 25 7
usemtl mat5
f 361 362 363
f 362 361 364
# Vertices: 4, normals: 0, texture coordinates: 0, faces: 2

o obj92
v 28 25 7
v 27 25 6
v 28 25 6
v 27 25 7
usemtl mat5
f 365 366 367
f 366 365 368
# Vertices: 4, normals: 0, texture coordinates: 0, faces: 2

o obj93
v 30 25 6
v 29 25 5
v 30 25 5
v 29 25 6
usemtl mat0
f 369 370 371
f 370 369 372
# Vertices: 4, normals: 0, texture coordinates: 0, faces: 2

o obj94
v 28 25 6
v 27 25 5
v 28 25 5
v 27 25 6
usemtl mat0
f 373 374 375
f 374 373 376
# Vertices: 4, normals: 0, texture coordinates: 0, faces: 2

o obj95
v 31 25 6
v 30 25 5
v 31 25 5
v 30 25 6
usemtl mat5
f 377 378 379
f 378 377 380
# Vertices: 4, normals: 0, texture coordinates: 0, faces: 2

o obj96
v 34 25 7
v 33 25 6
v 34 25 6
v 33 25 7
usemtl mat5
f 381 382 383
f 382 381 384
# Vertices: 4, normals: 0, texture coordinates: 0, faces: 2

o obj97
v 34 25 6
v 33 25 5
v 34 25 5
v 33 25 6
usemtl mat0
f 385 386 387
f 386 385 388
# Vertices: 4, normals: 0, texture coordinates: 0, faces: 2

o obj98
v 35 26 1
v 35 25 0
v 35 25 1
v 35 26 0
usemtl mat5
f 389 390 391
f 390 389 392
# Vertices: 4, normals: 0, texture coordinates: 0, faces: 2

o obj99
v 36 25 2
v 35 25 1
v 36 25 1
v 35 25 2
usemtl mat0
f 393 394 395
f 394 393 396
# Vertices: 4, normals: 0, texture coordinates: 0, faces: 2

o obj100
v 36 25 4
v 35 25 3
v 36 25 3
v 35 25 4
usemtl mat0
f 397 398 399
f 398 397 400
# Vertices: 4, normals: 0, texture coordinates: 0, faces: 2

o obj101
v 36 25 6
v 35 25 5
v 36 25 5
v 35 25 6
usemtl mat0
f 401 402 403
f 402 401 404
# Vertices: 4, normals: 0, texture coordinates: 0, faces: 2

o obj102
v 36 25 5
v 35 25 4
v 36 25 4
v 35 25 5
usemtl mat5
f 405 406 407
f 406 405 408
# Vertices: 4, normals: 0, texture coordinates: 0, faces: 2

o obj103
v 36 25 7
v 35 25 6
v 36 25 6
v 35 25 7
usemtl mat5
f 409 410 411
f 410 409 412
# Vertices: 4, normals: 0, texture coordinates: 0, faces: 2

o obj104
v 35 25 6
v 34 25 5
v 35 25 5
v 34 25 6
usemtl mat5
f 413 414 415
f 414 413 416
# Vertices: 4, normals: 0, texture coordinates: 0, faces: 2

o obj105
v 35 26 5
v 25 25 5
v 25 26 5
v 26 25 5
v 27 25 5
v 28 25 5
v 29 25 5
v 30 25 5
v 31 25 5
v 32 25 5
v 33 25 5
v 34 25 5
v 35 25 5
usemtl mat7
f 417 418 419
f 418 417 420
f 420 417 421
f 421 417 422
f 422 417 423
f 423 417 424
f 424 417 425
f 425 417 426
f 426 417 427
f 427 417 428
f 428 417 429
# Vertices: 13, normals: 0, texture coordinates: 0, faces: 11

o obj106
v 35 25 7
v 34 25 6
v 35 25 6
v 34 25 7
usemtl mat0
f 430 431 432
f 431 430 433
# Vertices: 4, normals: 0, texture coordinates: 0, faces: 2

o obj107
v 36 25 3
v 35 25 2
v 36 25 2
v 35 25 3
usemtl mat5
f 434 435 436
f 435 434 437
# Vertices: 4, normals: 0, texture coordinates: 0, faces: 2

o obj108
v 36 25 1
v 35 25 0
v 36 25 0
v 35 25 1
usemtl mat5
f 438 439 440
f 439 438 441
# Vertices: 4, normals: 0, texture coordinates: 0, faces: 2

o obj109
v 71 25 7
v 70 25 6
v 71 25 6
v 70 25 7
usemtl mat0
f 442 443 444
f 443 442 445
# Vertices: 4, normals: 0, texture coordinates: 0, faces: 2

o obj110
v 71 25 1
v 70 25 0
v 71 25 0
v 70 25 1
usemtl mat0
f 446 447 448
f 447 446 449
# Vertices: 4, normals: 0, texture coordinates: 0, faces: 2

o obj111
v 41 25 0
v 41.5 24.5 0
v 42 25 0
v 41.5 23.5 0
v 45.5 24.5 0
v 43 25 0
v 44 25 0
v 45 25 0
v 46 25 0
v 80 16 0
v 0 25 0
v 0 16 0
v 1 25 0
v 2 25 0
v 3 25 0
v 4 25 0
v 5 25 0
v 6 25 0
v 7 25 0
v 8 25 0
v 9 25 0
v 10 25 0
v 11 25 0
v 12 25 0
v 13 25 0
v 14 25 0
v 15 25 0
v 16 25 0
v 17 25 0
v 18 25 0
v 19 25 0
v 20 25 0
v 21 25 0
v 22 25 0
v 23 25 0
v 24 25 0
v 25 25 0
v 25 26 0
v 35 25 0
v 36 25 0
v 37 25 0
v 38 25 0
v 39 25 0
v 40 25 0
v 45.5 23.5 0
v 47 25 0
v 48 25 0
v 49 25 0
v 50 25 0
v 51 25 0
v 52 25 0
v 53 25 0
v 54 25 0
v 55 25 0
v 56 25 0
v 57 25 0
v 58 25 0
v 59 25 0
v 60 25 0
v 63.5 23.5 0
v 61 25 0
v 62 25 0
v 63 25 0
v 67.5 23.5 0
v 67.5 24.5 0
v 68 25 0
v 69 25 0
v 70 25 0
v 71 25 0
v 72 25 0
v 73 25 0
v 74 25 0
v 75 25 0
v 76 25 0
v 77 25 0
v 78 25 0
v 79 25 0
v 80 25 0
v 63.5 24.5 0
v 64 25 0
v 65 25 0
v 66 25 0
v 67 25 0
v 22 26 -0
v 22 33 -0
v 22 30 -0
v 25 33 0
v 35 33 0
v 35 26 0
v 38 26 0
v 38 33 0
v 38 30 0
usemtl mat21
f 450 451 452
f 451 450 453
f 452 451 454
f 452 454 455
f 455 454 456
f 456 454 457
f 457 454 458
f 459 460 461
f 460 459 462
f 462 459 463
f 463 459 464
f 464 459 465
f 465 459 466
f 466 459 467
f 467 459 468
f 468 459 469
f 469 459 470
f 470 459 471
f 471 459 472
f 472 459 473
f 473 459 474
f 474 459 475
f 475 459 476
f 476 459 477
f 477 459 478
f 478 459 479
f 479 459 480
f 480 459 481
f 481 459 482
f 482 459 483
f 483 459 484
f 484 459 485
f 485 459 486
f 486 459 487
f 487 459 453
f 487 453 488
f 488 453 489
f 489 453 490
f 490 453 491
f 491 453 492
f 492 453 493
f 493 453 450
f 453 459 494
f 494 459 454
f 454 459 458
f 458 459 495
f 495 459 496
f 496 459 497
f 497 459 498
f 498 459 499
f 499 459 500
f 500 459 501
f 501 459 502
f 502 459 503
f 503 459 504
f 504 459 505
f 505 459 506
f 506 459 507
f 507 459 508
f 508 459 509
f 508 509 510
f 510 509 511
f 511 509 512
f 509 459 513
f 513 459 514
f 514 459 515
f 515 459 516
f 516 459 517
f 517 459 518
f 518 459 519
f 519 459 520
f 520 459 521
f 521 459 522
f 522 459 523
f 523 459 524
f 524 459 525
f 525 459 526
f 526 459 527
f 512 528 529
f 528 512 509
f 529 528 514
f 529 514 530
f 530 514 531
f 531 514 532
f 532 514 515
f 533 534 535
f 534 533 536
f 536 533 487
f 536 487 537
f 537 487 488
f 537 488 538
f 537 538 539
f 537 539 540
f 540 539 541
# Vertices: 92, normals: 0, texture coordinates: 0, faces: 94

o obj112
v 1 25 7
v 0 10 17
v 0 25 7
v 80 10 17
v 2 25 7
v 3 25 7
v 4 25 7
v 5 25 7
v 6 25 7
v 7 25 7
v 8 25 7
v 9 25 7
v 10 25 7
v 11 25 7
v 12 25 7
v 13 25 7
v 14 25 7
v 15 25 7
v 16 25 7
v 17 25 7
v 18 25 7
v 19 25 7
v 20 25 7
v 21 25 7
v 22 25 7
v 23 25 7
v 24 25 7
v 25 25 7
v 26 25 7
v 27 25 7
v 28 25 7
v 29 25 7
v 30 25 7
v 31 25 7
v 32 25 7
v 33 25 7
v 34 25 7
v 35 25 7
v 36 25 7
v 37 25 7
v 38 25 7
v 39 25 7
v 40 25 7
v 41 25 7
v 42 25 7
v 43 25 7
v 44 25 7
v 45 25 7
v 46 25 7
v 47 25 7
v 48 25 7
v 49 25 7
v 50 25 7
v 51 25 7
v 52 25 7
v 53 25 7
v 54 25 7
v 55 25 7
v 56 25 7
v 57 25 7
v 58 25 7
v 59 25 7
v 60 25 7
v 61 25 7
v 62 25 7
v 63 25 7
v 64 25 7
v 65 25 7
v 66 25 7
v 67 25 7
v 68 25 7
v 69 25 7
v 70 25 7
v 71 25 7
v 72 25 7
v 73 25 7
v 74 25 7
v 75 25 7
v 76 25 7
v 77 25 7
v 78 25 7
v 79 25 7
v 80 25 7
usemtl mat8
f 542 543 544
f 543 542 545
f 545 542 546
f 545 546 547
f 545 547 548
f 545 548 549
f 545 549 550
f 545 550 551
f 545 551 552
f 545 552 553
f 545 553 554
f 545 554 555
f 545 555 556
f 545 556 557
f 545 557 558
f 545 558 559
f 545 559 560
f 545 560 561
f 545 561 562
f 545 562 563
f 545 563 564
f 545 564 565
f 545 565 566
f 545 566 567
f 545 567 568
f 545 568 569
f 545 569 570
f 545 570 571
f 545 571 572
f 545 572 573
f 545 573 574
f 545 574 575
f 545 575 576
f 545 576 577
f 545 577 578
f 545 578 579
f 545 579 580
f 545 580 581
f 545 581 582
f 545 582 583
f 545 583 584
f 545 584 585
f 545 585 586
f 545 586 587
f 545 587 588
f 545 588 589
f 545 589 590
f 545 590 591
f 545 591 592
f 545 592 593
f 545 593 594
f 545 594 595
f 545 595 596
f 545 596 597
f 545 597 598
f 545 598 599
f 545 599 600
f 545 600 601
f 545 601 602
f 545 602 603
f 545 603 604
f 545 604 605
f 545 605 606
f 545 606 607
f 545 607 608
f 545 608 609
f 545 609 610
f 545 610 611
f 545 611 612
f 545 612 613
f 545 613 614
f 545 614 615
f 545 615 616
f 545 616 617
f 545 617 618
f 545 618 619
f 545 619 620
f 545 620 621
f 545 621 622
f 545 622 623
f 545 623 624
# Vertices: 83, normals: 0, texture coordinates: 0, faces: 81

o obj113
v 71 25 5
v 70 25 4
v 71 25 4
v 70 25 5
usemtl mat0
f 625 626 627
f 626 625 628
# Vertices: 4, normals: 0, texture coordinates: 0, faces: 2

o obj114
v 71 25 2
v 70 25 1
v 71 25 1
v 70 25 2
usemtl mat6
f 629 630 631
f 630 629 632
# Vertices: 4, normals: 0, texture coordinates: 0, faces: 2

o obj115
v 71 25 6
v 70 25 5
v 71 25 5
v 70 25 6
usemtl mat6
f 633 634 635
f 634 633 636
# Vertices: 4, normals: 0, texture coordinates: 0, faces: 2

o obj116
v 71 25 4
v 70 25 3
v 71 25 3
v 70 25 4
usemtl mat6
f 637 638 639
f 638 637 640
# Vertices: 4, normals: 0, texture coordinates: 0, faces: 2

o obj117
v 71 25 3
v 70 25 2
v 71 25 2
v 70 25 3
usemtl mat0
f 641 642 643
f 642 641 644
# Vertices: 4, normals: 0, texture coordinates: 0, faces: 2

o obj118
v 68 25 5
v 67 25 4
v 68 25 4
v 67 25 5
usemtl mat6
f 645 646 647
f 646 645 648
# Vertices: 4, normals: 0, texture coordinates: 0, faces: 2

o obj119
v 66 25 6
v 65 25 5
v 66 25 5
v 65 25 6
usemtl mat0
f 649 650 651
f 650 649 652
# Vertices: 4, normals: 0, texture coordinates: 0, faces: 2

o obj120
v 61 25 3
v 60 25 2
v 61 25 2
v 60 25 3
usemtl mat0
f 653 654 655
f 654 653 656
# Vertices: 4, normals: 0, texture coordinates: 0, faces: 2

o obj121
v 64 25 6
v 63 25 5
v 64 25 5
v 63 25 6
usemtl mat0
f 657 658 659
f 658 657 660
# Vertices: 4, normals: 0, texture coordinates: 0, faces: 2

o obj122
v 62 25 7
v 61 25 6
v 62 25 6
v 61 25 7
usemtl mat6
f 661 662 663
f 662 661 664
# Vertices: 4, normals: 0, texture coordinates: 0, faces: 2

o obj123
v 61 25 6
v 60 25 5
v 61 25 5
v 60 25 6
usemtl mat6
f 665 666 667
f 666 665 668
# Vertices: 4, normals: 0, texture coordinates: 0, faces: 2

o obj124
v 70 25 7
v 69 25 6
v 70 25 6
v 69 25 7
usemtl mat6
f 669 670 671
f 670 669 672
# Vertices: 4, normals: 0, texture coordinates: 0, faces: 2

o obj125
v 61 25 1
v 60 25 0
v 61 25 0
v 60 25 1
usemtl mat0
f 673 674 675
f 674 673 676
# Vertices: 4, normals: 0, texture coordinates: 0, faces: 2

o obj126
v 68 25 7
v 67 25 6
v 68 25 6
v 67 25 7
usemtl mat6
f 677 678 679
f 678 677 680
# Vertices: 4, normals: 0, texture coordinates: 0, faces: 2

o obj127
v 67 25 6
v 66 25 5
v 67 25 5
v 66 25 6
usemtl mat6
f 681 682 683
f 682 681 684
# Vertices: 4, normals: 0, texture coordinates: 0, faces: 2

o obj128
v 69 25 1
v 68 25 0
v 69 25 0
v 68 25 1
v 68.5 25 1
usemtl mat0
f 685 686 687
f 686 685 688
f 688 685 689
# Vertices: 5, normals: 0, texture coordinates: 0, faces: 3

o obj129
v 69 25 5
v 68 25 4
v 69 25 4
v 68 25 5
usemtl mat0
f 690 691 692
f 691 690 693
# Vertices: 4, normals: 0, texture coordinates: 0, faces: 2

o obj130
v 65 25 6
v 64 25 5
v 65 25 5
v 64 25 6
usemtl mat6
f 694 695 696
f 695 694 697
# Vertices: 4, normals: 0, texture coordinates: 0, faces: 2

o obj131
v 65 25 2
v 64 25 1.5
v 65 25 1.5
v 64 25 2
usemtl mat6
f 698 699 700
f 699 698 701
# Vertices: 4, normals: 0, texture coordinates: 0, faces: 2

o obj132
v 70 25 2
v 69 25 1
v 70 25 1
v 69 25 2
usemtl mat0
f 702 703 704
f 703 702 705
# Vertices: 4, normals: 0, texture coordinates: 0, faces: 2

o obj133
v 70 25 5
v 69 25 4
v 70 25 4
v 69 25 5
usemtl mat6
f 706 707 708
f 707 706 709
# Vertices: 4, normals: 0, texture coordinates: 0, faces: 2

o obj134
v 69 25 4
v 68 25 3
v 69 25 3
v 68 25 4
usemtl mat6
f 710 711 712
f 711 710 713
# Vertices: 4, normals: 0, texture coordinates: 0, faces: 2

o obj135
v 70 25 6
v 69 25 5
v 70 25 5
v 69 25 6
usemtl mat0
f 714 715 716
f 715 714 717
# Vertices: 4, normals: 0, texture coordinates: 0, faces: 2

o obj136
v 65 25 5
v 64 25 4
v 65 25 4
v 64 25 5
usemtl mat0
f 718 719 720
f 719 718 721
# Vertices: 4, normals: 0, texture coordinates: 0, faces: 2

o obj137
v 65 25 3
v 64 25 2
v 65 25 2
v 64 25 3
usemtl mat0
f 722 723 724
f 723 722 725
# Vertices: 4, normals: 0, texture coordinates: 0, faces: 2

o obj138
v 62 25 2
v 61 25 1
v 62 25 1
v 61 25 2
usemtl mat0
f 726 727 728
f 727 726 729
# Vertices: 4, normals: 0, texture coordinates: 0, faces: 2

o obj139
v 62 25 1
v 61 25 0
v 62 25 0
v 61 25 1
usemtl mat6
f 730 731 732
f 731 730 733
# Vertices: 4, normals: 0, texture coordinates: 0, faces: 2

o obj140
v 68 25 1
v 67 25 0
v 68 25 0
v 67 25 1
usemtl mat6
f 734 735 736
f 735 734 737
# Vertices: 4, normals: 0, texture coordinates: 0, faces: 2

o obj141
v 63 25 7
v 62 25 6
v 63 25 6
v 62 25 7
usemtl mat0
f 738 739 740
f 739 738 741
# Vertices: 4, normals: 0, texture coordinates: 0, faces: 2

o obj142
v 63 25 6
v 62 25 5
v 63 25 5
v 62 25 6
usemtl mat6
f 742 743 744
f 743 742 745
# Vertices: 4, normals: 0, texture coordinates: 0, faces: 2

o obj143
v 69 25 2
v 68 25 3
v 68 25 2
v 69 25 3
usemtl mat0
f 746 747 748
f 747 746 749
# Vertices: 4, normals: 0, texture coordinates: 0, faces: 2

o obj144
v 61 25 4
v 60 25 3
v 61 25 3
v 60 25 4
usemtl mat6
f 750 751 752
f 751 750 753
# Vertices: 4, normals: 0, texture coordinates: 0, faces: 2

o obj145
v 68 25 1.5
v 68.5 25 1
v 68 25 1
v 68.5 25 1.5
usemtl mat6
f 754 755 756
f 755 754 757
# Vertices: 4, normals: 0, texture coordinates: 0, faces: 2

o obj146
v 66 25 2
v 65 25 1.5
v 66 25 1.5
v 65 25 2
usemtl mat0
f 758 759 760
f 759 758 761
# Vertices: 4, normals: 0, texture coordinates: 0, faces: 2

o obj147
v 62 25 5
v 61 25 4
v 62 25 4
v 61 25 5
usemtl mat6
f 762 763 764
f 763 762 765
# Vertices: 4, normals: 0, texture coordinates: 0, faces: 2

o obj148
v 68 25 2
v 67 25 1.5
v 68 25 1.5
v 67 25 2
usemtl mat0
f 766 767 768
f 767 766 769
# Vertices: 4, normals: 0, texture coordinates: 0, faces: 2

o obj149
v 66 25 3
v 65 25 2
v 66 25 2
v 65 25 3
usemtl mat6
f 770 771 772
f 771 770 773
# Vertices: 4, normals: 0, texture coordinates: 0, faces: 2

o obj150
v 64 25 1
v 63 25 0
v 64 25 0
v 63 25 1
usemtl mat6
f 774 775 776
f 775 774 777
# Vertices: 4, normals: 0, texture coordinates: 0, faces: 2

o obj151
v 63 25 4
v 62 25 3
v 63 25 3
v 62 25 4
usemtl mat6
f 778 779 780
f 779 778 781
# Vertices: 4, normals: 0, texture coordinates: 0, faces: 2

o obj152
v 67 25 3
v 66 25 2
v 67 25 2
v 66 25 3
usemtl mat0
f 782 783 784
f 783 782 785
# Vertices: 4, normals: 0, texture coordinates: 0, faces: 2

o obj153
v 67 25 7
v 66 25 6
v 67 25 6
v 66 25 7
usemtl mat0
f 786 787 788
f 787 786 789
# Vertices: 4, normals: 0, texture coordinates: 0, faces: 2

o obj154
v 67 25 2
v 66 25 1.5
v 67 25 1.5
v 66 25 2
usemtl mat6
f 790 791 792
f 791 790 793
# Vertices: 4, normals: 0, texture coordinates: 0, faces: 2

o obj155
v 64 25 5
v 63 25 4
v 64 25 4
v 63 25 5
usemtl mat6
f 794 795 796
f 795 794 797
# Vertices: 4, normals: 0, texture coordinates: 0, faces: 2

o obj156
v 70 25 1
v 69 25 0
v 70 25 0
v 69 25 1
usemtl mat6
f 798 799 800
f 799 798 801
# Vertices: 4, normals: 0, texture coordinates: 0, faces: 2

o obj157
v 68 25 2
v 67 25 3
v 67 25 2
v 68 25 3
usemtl mat6
f 802 803 804
f 803 802 805
# Vertices: 4, normals: 0, texture coordinates: 0, faces: 2

o obj158
v 67 25 4
v 66 25 3
v 67 25 3
v 66 25 4
usemtl mat6
f 806 807 808
f 807 806 809
# Vertices: 4, normals: 0, texture coordinates: 0, faces: 2

o obj159
v 67 25 1
v 66 25 0
v 67 25 0
v 66 25 1
usemtl mat0
f 810 811 812
f 811 810 813
# Vertices: 4, normals: 0, texture coordinates: 0, faces: 2

o obj160
v 61 25 7
v 60 25 6
v 61 25 6
v 60 25 7
usemtl mat0
f 814 815 816
f 815 814 817
# Vertices: 4, normals: 0, texture coordinates: 0, faces: 2

o obj161
v 61 25 2
v 60 25 1
v 61 25 1
v 60 25 2
usemtl mat6
f 818 819 820
f 819 818 821
# Vertices: 4, normals: 0, texture coordinates: 0, faces: 2

o obj162
v 66 25 7
v 65 25 6
v 66 25 6
v 65 25 7
usemtl mat6
f 822 823 824
f 823 822 825
# Vertices: 4, normals: 0, texture coordinates: 0, faces: 2

o obj163
v 66 25 5
v 65 25 4
v 66 25 4
v 65 25 5
usemtl mat6
f 826 827 828
f 827 826 829
# Vertices: 4, normals: 0, texture coordinates: 0, faces: 2

o obj164
v 61 25 5
v 60 25 4
v 61 25 4
v 60 25 5
usemtl mat0
f 830 831 832
f 831 830 833
# Vertices: 4, normals: 0, texture coordinates: 0, faces: 2

o obj165
v 66 25 4
v 65 25 3
v 66 25 3
v 65 25 4
usemtl mat0
f 834 835 836
f 835 834 837
# Vertices: 4, normals: 0, texture coordinates: 0, faces: 2

o obj166
v 68 25 4
v 67 25 3
v 68 25 3
v 67 25 4
usemtl mat0
f 838 839 840
f 839 838 841
# Vertices: 4, normals: 0, texture coordinates: 0, faces: 2

o obj167
v 62 25 4
v 61 25 3
v 62 25 3
v 61 25 4
usemtl mat0
f 842 843 844
f 843 842 845
# Vertices: 4, normals: 0, texture coordinates: 0, faces: 2

o obj168
v 66 25 1
v 65 25 0
v 66 25 0
v 65 25 1
usemtl mat6
f 846 847 848
f 847 846 849
# Vertices: 4, normals: 0, texture coordinates: 0, faces: 2

o obj169
v 63 25 2
v 62 25 3
v 62 25 2
v 63 25 3
usemtl mat0
f 850 851 852
f 851 850 853
# Vertices: 4, normals: 0, texture coordinates: 0, faces: 2

o obj170
v 70 25 4
v 69 25 3
v 70 25 3
v 69 25 4
usemtl mat0
f 854 855 856
f 855 854 857
# Vertices: 4, normals: 0, texture coordinates: 0, faces: 2

o obj171
v 64 25 3
v 63 25 2
v 64 25 2
v 63 25 3
usemtl mat6
f 858 859 860
f 859 858 861
# Vertices: 4, normals: 0, texture coordinates: 0, faces: 2

o obj172
v 67 25 5
v 66 25 4
v 67 25 4
v 66 25 5
usemtl mat0
f 862 863 864
f 863 862 865
# Vertices: 4, normals: 0, texture coordinates: 0, faces: 2

o obj173
v 64 25 2
v 63 25 1.5
v 64 25 1.5
v 63 25 2
usemtl mat0
f 866 867 868
f 867 866 869
# Vertices: 4, normals: 0, texture coordinates: 0, faces: 2

o obj174
v 64 25 4
v 63 25 3
v 64 25 3
v 63 25 4
usemtl mat0
f 870 871 872
f 871 870 873
# Vertices: 4, normals: 0, texture coordinates: 0, faces: 2

o obj175
v 68 25 6
v 67 25 5
v 68 25 5
v 67 25 6
usemtl mat0
f 874 875 876
f 875 874 877
# Vertices: 4, normals: 0, texture coordinates: 0, faces: 2

o obj176
v 64 25 7
v 63 25 6
v 64 25 6
v 63 25 7
usemtl mat6
f 878 879 880
f 879 878 881
# Vertices: 4, normals: 0, texture coordinates: 0, faces: 2

o obj177
v 65 25 3
v 64 25 4
v 64 25 3
v 65 25 4
usemtl mat6
f 882 883 884
f 883 882 885
# Vertices: 4, normals: 0, texture coordinates: 0, faces: 2

o obj178
v 65 25 7
v 64 25 6
v 65 25 6
v 64 25 7
usemtl mat0
f 886 887 888
f 887 886 889
# Vertices: 4, normals: 0, texture coordinates: 0, faces: 2

o obj179
v 62 25 6
v 61 25 5
v 62 25 5
v 61 25 6
usemtl mat0
f 890 891 892
f 891 890 893
# Vertices: 4, normals: 0, texture coordinates: 0, faces: 2

o obj180
v 62 25 2
v 61 25 3
v 61 25 2
v 62 25 3
usemtl mat6
f 894 895 896
f 895 894 897
# Vertices: 4, normals: 0, texture coordinates: 0, faces: 2

o obj181
v 63 25 1
v 62 25 0
v 63 25 0
v 62 25 1
v 62.5 25 1
usemtl mat0
f 898 899 900
f 899 898 901
f 901 898 902
# Vertices: 5, normals: 0, texture coordinates: 0, faces: 3

o obj182
v 69 25 7
v 68 25 6
v 69 25 6
v 68 25 7
usemtl mat0
f 903 904 905
f 904 903 906
# Vertices: 4, normals: 0, texture coordinates: 0, faces: 2

o obj183
v 69 25 6
v 68 25 5
v 69 25 5
v 68 25 6
usemtl mat6
f 907 908 909
f 908 907 910
# Vertices: 4, normals: 0, texture coordinates: 0, faces: 2

o obj184
v 63 25 5
v 62 25 4
v 63 25 4
v 62 25 5
usemtl mat0
f 911 912 913
f 912 911 914
# Vertices: 4, normals: 0, texture coordinates: 0, faces: 2

o obj185
v 63 25 2
v 62.5 25 1.5
v 63 25 1.5
v 62 25 2
v 62 25 1
v 62.5 25 1
usemtl mat6
f 915 916 917
f 916 915 918
f 916 919 920
f 919 916 918
# Vertices: 6, normals: 0, texture coordinates: 0, faces: 4

o obj186
v 70 25 3
v 69 25 2
v 70 25 2
v 69 25 3
usemtl mat6
f 921 922 923
f 922 921 924
# Vertices: 4, normals: 0, texture coordinates: 0, faces: 2

o obj187
v 65 25 1
v 64 25 0
v 65 25 0
v 64 25 1
usemtl mat0
f 925 926 927
f 926 925 928
# Vertices: 4, normals: 0, texture coordinates: 0, faces: 2

o obj188
v 58 25 5
v 57 25 4
v 58 25 4
v 57 25 5
usemtl mat6
f 929 930 931
f 930 929 932
# Vertices: 4, normals: 0, texture coordinates: 0, faces: 2

o obj189
v 56 25 6
v 55 25 5
v 56 25 5
v 55 25 6
usemtl mat0
f 933 934 935
f 934 933 936
# Vertices: 4, normals: 0, texture coordinates: 0, faces: 2

o obj190
v 51 25 3
v 50 25 2
v 51 25 2
v 50 25 3
usemtl mat0
f 937 938 939
f 938 937 940
# Vertices: 4, normals: 0, texture coordinates: 0, faces: 2

o obj191
v 54 25 6
v 53 25 5
v 54 25 5
v 53 25 6
usemtl mat0
f 941 942 943
f 942 941 944
# Vertices: 4, normals: 0, texture coordinates: 0, faces: 2

o obj192
v 52 25 7
v 51 25 6
v 52 25 6
v 51 25 7
usemtl mat6
f 945 946 947
f 946 945 948
# Vertices: 4, normals: 0, texture coordinates: 0, faces: 2

o obj193
v 51 25 6
v 50 25 5
v 51 25 5
v 50 25 6
usemtl mat6
f 949 950 951
f 950 949 952
# Vertices: 4, normals: 0, texture coordinates: 0, faces: 2

o obj194
v 60 25 7
v 59 25 6
v 60 25 6
v 59 25 7
usemtl mat6
f 953 954 955
f 954 953 956
# Vertices: 4, normals: 0, texture coordinates: 0, faces: 2

o obj195
v 51 25 1
v 50 25 0
v 51 25 0
v 50 25 1
usemtl mat0
f 957 958 959
f 958 957 960
# Vertices: 4, normals: 0, texture coordinates: 0, faces: 2

o obj196
v 58 25 7
v 57 25 6
v 58 25 6
v 57 25 7
usemtl mat6
f 961 962 963
f 962 961 964
# Vertices: 4, normals: 0, texture coordinates: 0, faces: 2

o obj197
v 57 25 6
v 56 25 5
v 57 25 5
v 56 25 6
usemtl mat6
f 965 966 967
f 966 965 968
# Vertices: 4, normals: 0, texture coordinates: 0, faces: 2

o obj198
v 59 25 1
v 58 25 0
v 59 25 0
v 58 25 1
usemtl mat0
f 969 970 971
f 970 969 972
# Vertices: 4, normals: 0, texture coordinates: 0, faces: 2

o obj199
v 59 25 5
v 58 25 4
v 59 25 4
v 58 25 5
usemtl mat0
f 973 974 975
f 974 973 976
# Vertices: 4, normals: 0, texture coordinates: 0, faces: 2

o obj200
v 55 25 6
v 54 25 5
v 55 25 5
v 54 25 6
usemtl mat6
f 977 978 979
f 978 977 980
# Vertices: 4, normals: 0, texture coordinates: 0, faces: 2

o obj201
v 55 25 1
v 54 25 2
v 54 25 1
v 55 25 2
usemtl mat6
f 981 982 983
f 982 981 984
# Vertices: 4, normals: 0, texture coordinates: 0, faces: 2

o obj202
v 60 25 2
v 59 25 1
v 60 25 1
v 59 25 2
usemtl mat0
f 985 986 987
f 986 985 988
# Vertices: 4, normals: 0, texture coordinates: 0, faces: 2

o obj203
v 60 25 5
v 59 25 4
v 60 25 4
v 59 25 5
usemtl mat6
f 989 990 991
f 990 989 992
# Vertices: 4, normals: 0, texture coordinates: 0, faces: 2

o obj204
v 59 25 4
v 58 25 3
v 59 25 3
v 58 25 4
usemtl mat6
f 993 994 995
f 994 993 996
# Vertices: 4, normals: 0, texture coordinates: 0, faces: 2

o obj205
v 60 25 6
v 59 25 5
v 60 25 5
v 59 25 6
usemtl mat0
f 997 998 999
f 998 997 1000
# Vertices: 4, normals: 0, texture coordinates: 0, faces: 2

o obj206
v 55 25 5
v 54 25 4
v 55 25 4
v 54 25 5
usemtl mat0
f 1001 1002 1003
f 1002 1001 1004
# Vertices: 4, normals: 0, texture coordinates: 0, faces: 2

o obj207
v 55 25 3
v 54 25 2
v 55 25 2
v 54 25 3
usemtl mat0
f 1005 1006 1007
f 1006 1005 1008
# Vertices: 4, normals: 0, texture coordinates: 0, faces: 2

o obj208
v 52 25 2
v 51 25 1
v 52 25 1
v 51 25 2
usemtl mat0
f 1009 1010 1011
f 1010 1009 1012
# Vertices: 4, normals: 0, texture coordinates: 0, faces: 2

o obj209
v 52 25 1
v 51 25 0
v 52 25 0
v 51 25 1
usemtl mat6
f 1013 1014 1015
f 1014 1013 1016
# Vertices: 4, normals: 0, texture coordinates: 0, faces: 2

o obj210
v 58 25 1
v 57 25 0
v 58 25 0
v 57 25 1
usemtl mat6
f 1017 1018 1019
f 1018 1017 1020
# Vertices: 4, normals: 0, texture coordinates: 0, faces: 2

o obj211
v 53 25 7
v 52 25 6
v 53 25 6
v 52 25 7
usemtl mat0
f 1021 1022 1023
f 1022 1021 1024
# Vertices: 4, normals: 0, texture coordinates: 0, faces: 2

o obj212
v 53 25 6
v 52 25 5
v 53 25 5
v 52 25 6
usemtl mat6
f 1025 1026 1027
f 1026 1025 1028
# Vertices: 4, normals: 0, texture coordinates: 0, faces: 2

o obj213
v 59 25 3
v 58 25 2
v 59 25 2
v 58 25 3
usemtl mat0
f 1029 1030 1031
f 1030 1029 1032
# Vertices: 4, normals: 0, texture coordinates: 0, faces: 2

o obj214
v 51 25 4
v 50 25 3
v 51 25 3
v 50 25 4
usemtl mat6
f 1033 1034 1035
f 1034 1033 1036
# Vertices: 4, normals: 0, texture coordinates: 0, faces: 2

o obj215
v 59 25 2
v 58 25 1
v 59 25 1
v 58 25 2
usemtl mat6
f 1037 1038 1039
f 1038 1037 1040
# Vertices: 4, normals: 0, texture coordinates: 0, faces: 2

o obj216
v 56 25 1
v 55 25 2
v 55 25 1
v 56 25 2
usemtl mat0
f 1041 1042 1043
f 1042 1041 1044
# Vertices: 4, normals: 0, texture coordinates: 0, faces: 2

o obj217
v 52 25 5
v 51 25 4
v 52 25 4
v 51 25 5
usemtl mat6
f 1045 1046 1047
f 1046 1045 1048
# Vertices: 4, normals: 0, texture coordinates: 0, faces: 2

o obj218
v 58 25 2
v 57 25 1
v 58 25 1
v 57 25 2
usemtl mat0
f 1049 1050 1051
f 1050 1049 1052
# Vertices: 4, normals: 0, texture coordinates: 0, faces: 2

o obj219
v 56 25 3
v 55 25 2
v 56 25 2
v 55 25 3
usemtl mat6
f 1053 1054 1055
f 1054 1053 1056
# Vertices: 4, normals: 0, texture coordinates: 0, faces: 2

o obj220
v 54 25 1
v 53 25 0
v 54 25 0
v 53 25 1
usemtl mat6
f 1057 1058 1059
f 1058 1057 1060
# Vertices: 4, normals: 0, texture coordinates: 0, faces: 2

o obj221
v 53 25 4
v 52 25 3
v 53 25 3
v 52 25 4
usemtl mat6
f 1061 1062 1063
f 1062 1061 1064
# Vertices: 4, normals: 0, texture coordinates: 0, faces: 2

o obj222
v 57 25 3
v 56 25 2
v 57 25 2
v 56 25 3
usemtl mat0
f 1065 1066 1067
f 1066 1065 1068
# Vertices: 4, normals: 0, texture coordinates: 0, faces: 2

o obj223
v 57 25 7
v 56 25 6
v 57 25 6
v 56 25 7
usemtl mat0
f 1069 1070 1071
f 1070 1069 1072
# Vertices: 4, normals: 0, texture coordinates: 0, faces: 2

o obj224
v 57 25 2
v 56 25 1
v 57 25 1
v 56 25 2
usemtl mat6
f 1073 1074 1075
f 1074 1073 1076
# Vertices: 4, normals: 0, texture coordinates: 0, faces: 2

o obj225
v 54 25 5
v 53 25 4
v 54 25 4
v 53 25 5
usemtl mat6
f 1077 1078 1079
f 1078 1077 1080
# Vertices: 4, normals: 0, texture coordinates: 0, faces: 2

o obj226
v 60 25 1
v 59 25 0
v 60 25 0
v 59 25 1
usemtl mat6
f 1081 1082 1083
f 1082 1081 1084
# Vertices: 4, normals: 0, texture coordinates: 0, faces: 2

o obj227
v 58 25 3
v 57 25 2
v 58 25 2
v 57 25 3
usemtl mat6
f 1085 1086 1087
f 1086 1085 1088
# Vertices: 4, normals: 0, texture coordinates: 0, faces: 2

o obj228
v 57 25 4
v 56 25 3
v 57 25 3
v 56 25 4
usemtl mat6
f 1089 1090 1091
f 1090 1089 1092
# Vertices: 4, normals: 0, texture coordinates: 0, faces: 2

o obj229
v 57 25 1
v 56 25 0
v 57 25 0
v 56 25 1
usemtl mat0
f 1093 1094 1095
f 1094 1093 1096
# Vertices: 4, normals: 0, texture coordinates: 0, faces: 2

o obj230
v 51 25 7
v 50 25 6
v 51 25 6
v 50 25 7
usemtl mat0
f 1097 1098 1099
f 1098 1097 1100
# Vertices: 4, normals: 0, texture coordinates: 0, faces: 2

o obj231
v 51 25 2
v 50 25 1
v 51 25 1
v 50 25 2
usemtl mat6
f 1101 1102 1103
f 1102 1101 1104
# Vertices: 4, normals: 0, texture coordinates: 0, faces: 2

o obj232
v 56 25 7
v 55 25 6
v 56 25 6
v 55 25 7
usemtl mat6
f 1105 1106 1107
f 1106 1105 1108
# Vertices: 4, normals: 0, texture coordinates: 0, faces: 2

o obj233
v 56 25 5
v 55 25 4
v 56 25 4
v 55 25 5
usemtl mat6
f 1109 1110 1111
f 1110 1109 1112
# Vertices: 4, normals: 0, texture coordinates: 0, faces: 2

o obj234
v 51 25 5
v 50 25 4
v 51 25 4
v 50 25 5
usemtl mat0
f 1113 1114 1115
f 1114 1113 1116
# Vertices: 4, normals: 0, texture coordinates: 0, faces: 2

o obj235
v 56 25 3
v 55 25 4
v 55 25 3
v 56 25 4
usemtl mat0
f 1117 1118 1119
f 1118 1117 1120
# Vertices: 4, normals: 0, texture coordinates: 0, faces: 2

o obj236
v 58 25 4
v 57 25 3
v 58 25 3
v 57 25 4
usemtl mat0
f 1121 1122 1123
f 1122 1121 1124
# Vertices: 4, normals: 0, texture coordinates: 0, faces: 2

o obj237
v 52 25 4
v 51 25 3
v 52 25 3
v 51 25 4
usemtl mat0
f 1125 1126 1127
f 1126 1125 1128
# Vertices: 4, normals: 0, texture coordinates: 0, faces: 2

o obj238
v 56 25 1
v 55 25 0
v 56 25 0
v 55 25 1
usemtl mat6
f 1129 1130 1131
f 1130 1129 1132
# Vertices: 4, normals: 0, texture coordinates: 0, faces: 2

o obj239
v 53 25 3
v 52 25 2
v 53 25 2
v 52 25 3
usemtl mat0
f 1133 1134 1135
f 1134 1133 1136
# Vertices: 4, normals: 0, texture coordinates: 0, faces: 2

o obj240
v 60 25 4
v 59 25 3
v 60 25 3
v 59 25 4
usemtl mat0
f 1137 1138 1139
f 1138 1137 1140
# Vertices: 4, normals: 0, texture coordinates: 0, faces: 2

o obj241
v 54 25 3
v 53 25 2
v 54 25 2
v 53 25 3
usemtl mat6
f 1141 1142 1143
f 1142 1141 1144
# Vertices: 4, normals: 0, texture coordinates: 0, faces: 2

o obj242
v 57 25 5
v 56 25 4
v 57 25 4
v 56 25 5
usemtl mat0
f 1145 1146 1147
f 1146 1145 1148
# Vertices: 4, normals: 0, texture coordinates: 0, faces: 2

o obj243
v 54 25 2
v 53 25 1
v 54 25 1
v 53 25 2
usemtl mat0
f 1149 1150 1151
f 1150 1149 1152
# Vertices: 4, normals: 0, texture coordinates: 0, faces: 2

o obj244
v 54 25 4
v 53 25 3
v 54 25 3
v 53 25 4
usemtl mat0
f 1153 1154 1155
f 1154 1153 1156
# Vertices: 4, normals: 0, texture coordinates: 0, faces: 2

o obj245
v 58 25 6
v 57 25 5
v 58 25 5
v 57 25 6
usemtl mat0
f 1157 1158 1159
f 1158 1157 1160
# Vertices: 4, normals: 0, texture coordinates: 0, faces: 2

o obj246
v 54 25 7
v 53 25 6
v 54 25 6
v 53 25 7
usemtl mat6
f 1161 1162 1163
f 1162 1161 1164
# Vertices: 4, normals: 0, texture coordinates: 0, faces: 2

o obj247
v 55 25 3
v 54 25 4
v 54 25 3
v 55 25 4
usemtl mat6
f 1165 1166 1167
f 1166 1165 1168
# Vertices: 4, normals: 0, texture coordinates: 0, faces: 2

o obj248
v 55 25 7
v 54 25 6
v 55 25 6
v 54 25 7
usemtl mat0
f 1169 1170 1171
f 1170 1169 1172
# Vertices: 4, normals: 0, texture coordinates: 0, faces: 2

o obj249
v 52 25 6
v 51 25 5
v 52 25 5
v 51 25 6
usemtl mat0
f 1173 1174 1175
f 1174 1173 1176
# Vertices: 4, normals: 0, texture coordinates: 0, faces: 2

o obj250
v 52 25 3
v 51 25 2
v 52 25 2
v 51 25 3
usemtl mat6
f 1177 1178 1179
f 1178 1177 1180
# Vertices: 4, normals: 0, texture coordinates: 0, faces: 2

o obj251
v 53 25 1
v 52 25 0
v 53 25 0
v 52 25 1
usemtl mat0
f 1181 1182 1183
f 1182 1181 1184
# Vertices: 4, normals: 0, texture coordinates: 0, faces: 2

o obj252
v 59 25 7
v 58 25 6
v 59 25 6
v 58 25 7
usemtl mat0
f 1185 1186 1187
f 1186 1185 1188
# Vertices: 4, normals: 0, texture coordinates: 0, faces: 2

o obj253
v 59 25 6
v 58 25 5
v 59 25 5
v 58 25 6
usemtl mat6
f 1189 1190 1191
f 1190 1189 1192
# Vertices: 4, normals: 0, texture coordinates: 0, faces: 2

o obj254
v 53 25 5
v 52 25 4
v 53 25 4
v 52 25 5
usemtl mat0
f 1193 1194 1195
f 1194 1193 1196
# Vertices: 4, normals: 0, texture coordinates: 0, faces: 2

o obj255
v 53 25 2
v 52 25 1
v 53 25 1
v 52 25 2
usemtl mat6
f 1197 1198 1199
f 1198 1197 1200
# Vertices: 4, normals: 0, texture coordinates: 0, faces: 2

o obj256
v 60 25 3
v 59 25 2
v 60 25 2
v 59 25 3
usemtl mat6
f 1201 1202 1203
f 1202 1201 1204
# Vertices: 4, normals: 0, texture coordinates: 0, faces: 2

o obj257
v 55 25 1
v 54 25 0
v 55 25 0
v 54 25 1
usemtl mat0
f 1205 1206 1207
f 1206 1205 1208
# Vertices: 4, normals: 0, texture coordinates: 0, faces: 2

o obj258
v 48 25 5
v 47 25 4
v 48 25 4
v 47 25 5
usemtl mat6
f 1209 1210 1211
f 1210 1209 1212
# Vertices: 4, normals: 0, texture coordinates: 0, faces: 2

o obj259
v 50 25 7
v 49 25 6
v 50 25 6
v 49 25 7
usemtl mat6
f 1213 1214 1215
f 1214 1213 1216
# Vertices: 4, normals: 0, texture coordinates: 0, faces: 2

o obj260
v 48 25 7
v 47 25 6
v 48 25 6
v 47 25 7
usemtl mat6
f 1217 1218 1219
f 1218 1217 1220
# Vertices: 4, normals: 0, texture coordinates: 0, faces: 2

o obj261
v 47 25 6
v 46 25 5
v 47 25 5
v 46 25 6
usemtl mat6
f 1221 1222 1223
f 1222 1221 1224
# Vertices: 4, normals: 0, texture coordinates: 0, faces: 2

o obj262
v 49 25 1
v 48 25 0
v 49 25 0
v 48 25 1
usemtl mat0
f 1225 1226 1227
f 1226 1225 1228
# Vertices: 4, normals: 0, texture coordinates: 0, faces: 2

o obj263
v 49 25 5
v 48 25 4
v 49 25 4
v 48 25 5
usemtl mat0
f 1229 1230 1231
f 1230 1229 1232
# Vertices: 4, normals: 0, texture coordinates: 0, faces: 2

o obj264
v 50 25 2
v 49 25 1
v 50 25 1
v 49 25 2
usemtl mat0
f 1233 1234 1235
f 1234 1233 1236
# Vertices: 4, normals: 0, texture coordinates: 0, faces: 2

o obj265
v 50 25 5
v 49 25 4
v 50 25 4
v 49 25 5
usemtl mat6
f 1237 1238 1239
f 1238 1237 1240
# Vertices: 4, normals: 0, texture coordinates: 0, faces: 2

o obj266
v 49 25 4
v 48 25 3
v 49 25 3
v 48 25 4
usemtl mat6
f 1241 1242 1243
f 1242 1241 1244
# Vertices: 4, normals: 0, texture coordinates: 0, faces: 2

o obj267
v 50 25 6
v 49 25 5
v 50 25 5
v 49 25 6
usemtl mat0
f 1245 1246 1247
f 1246 1245 1248
# Vertices: 4, normals: 0, texture coordinates: 0, faces: 2

o obj268
v 48 25 1
v 47 25 0
v 48 25 0
v 47 25 1
usemtl mat6
f 1249 1250 1251
f 1250 1249 1252
# Vertices: 4, normals: 0, texture coordinates: 0, faces: 2

o obj269
v 49 25 3
v 48 25 2
v 49 25 2
v 48 25 3
usemtl mat0
f 1253 1254 1255
f 1254 1253 1256
# Vertices: 4, normals: 0, texture coordinates: 0, faces: 2

o obj270
v 49 25 2
v 48 25 1
v 49 25 1
v 48 25 2
usemtl mat6
f 1257 1258 1259
f 1258 1257 1260
# Vertices: 4, normals: 0, texture coordinates: 0, faces: 2

o obj271
v 48 25 2
v 47 25 1
v 48 25 1
v 47 25 2
usemtl mat0
f 1261 1262 1263
f 1262 1261 1264
# Vertices: 4, normals: 0, texture coordinates: 0, faces: 2

o obj272
v 47 25 3
v 46 25 2
v 47 25 2
v 46 25 3
usemtl mat0
f 1265 1266 1267
f 1266 1265 1268
# Vertices: 4, normals: 0, texture coordinates: 0, faces: 2

o obj273
v 47 25 7
v 46 25 6
v 47 25 6
v 46 25 7
usemtl mat0
f 1269 1270 1271
f 1270 1269 1272
# Vertices: 4, normals: 0, texture coordinates: 0, faces: 2

o obj274
v 47 25 2
v 46.5 25 1
v 47 25 1
v 46.5 25 1.5
v 46 25 1.5
v 46 25 2
usemtl mat6
f 1273 1274 1275
f 1274 1273 1276
f 1276 1273 1277
f 1277 1273 1278
# Vertices: 6, normals: 0, texture coordinates: 0, faces: 4

o obj275
v 50 25 1
v 49 25 0
v 50 25 0
v 49 25 1
usemtl mat6
f 1279 1280 1281
f 1280 1279 1282
# Vertices: 4, normals: 0, texture coordinates: 0, faces: 2

o obj276
v 48 25 3
v 47 25 2
v 48 25 2
v 47 25 3
usemtl mat6
f 1283 1284 1285
f 1284 1283 1286
# Vertices: 4, normals: 0, texture coordinates: 0, faces: 2

o obj277
v 47 25 4
v 46 25 3
v 47 25 3
v 46 25 4
usemtl mat6
f 1287 1288 1289
f 1288 1287 1290
# Vertices: 4, normals: 0, texture coordinates: 0, faces: 2

o obj278
v 47 25 1
v 46 25 0
v 47 25 0
v 46 25 1
v 46.5 25 1
usemtl mat0
f 1291 1292 1293
f 1292 1291 1294
f 1294 1291 1295
# Vertices: 5, normals: 0, texture coordinates: 0, faces: 3

o obj279
v 48 25 4
v 47 25 3
v 48 25 3
v 47 25 4
usemtl mat0
f 1296 1297 1298
f 1297 1296 1299
# Vertices: 4, normals: 0, texture coordinates: 0, faces: 2

o obj280
v 50 25 4
v 49 25 3
v 50 25 3
v 49 25 4
usemtl mat0
f 1300 1301 1302
f 1301 1300 1303
# Vertices: 4, normals: 0, texture coordinates: 0, faces: 2

o obj281
v 47 25 5
v 46 25 4
v 47 25 4
v 46 25 5
usemtl mat0
f 1304 1305 1306
f 1305 1304 1307
# Vertices: 4, normals: 0, texture coordinates: 0, faces: 2

o obj282
v 48 25 6
v 47 25 5
v 48 25 5
v 47 25 6
usemtl mat0
f 1308 1309 1310
f 1309 1308 1311
# Vertices: 4, normals: 0, texture coordinates: 0, faces: 2

o obj283
v 49 25 7
v 48 25 6
v 49 25 6
v 48 25 7
usemtl mat0
f 1312 1313 1314
f 1313 1312 1315
# Vertices: 4, normals: 0, texture coordinates: 0, faces: 2

o obj284
v 49 25 6
v 48 25 5
v 49 25 5
v 48 25 6
usemtl mat6
f 1316 1317 1318
f 1317 1316 1319
# Vertices: 4, normals: 0, texture coordinates: 0, faces: 2

o obj285
v 50 25 3
v 49 25 2
v 50 25 2
v 49 25 3
usemtl mat6
f 1320 1321 1322
f 1321 1320 1323
# Vertices: 4, normals: 0, texture coordinates: 0, faces: 2

o obj286
v 44 25 5
v 43 25 4
v 44 25 4
v 43 25 5
usemtl mat6
f 1324 1325 1326
f 1325 1324 1327
# Vertices: 4, normals: 0, texture coordinates: 0, faces: 2

o obj287
v 42 25 6
v 41 25 5
v 42 25 5
v 41 25 6
usemtl mat0
f 1328 1329 1330
f 1329 1328 1331
# Vertices: 4, normals: 0, texture coordinates: 0, faces: 2

o obj288
v 37 25 2
v 36 25 3
v 36 25 2
v 37 25 3
usemtl mat0
f 1332 1333 1334
f 1333 1332 1335
# Vertices: 4, normals: 0, texture coordinates: 0, faces: 2

o obj289
v 40 25 6
v 39 25 5
v 40 25 5
v 39 25 6
usemtl mat0
f 1336 1337 1338
f 1337 1336 1339
# Vertices: 4, normals: 0, texture coordinates: 0, faces: 2

o obj290
v 38 25 7
v 37 25 6
v 38 25 6
v 37 25 7
usemtl mat6
f 1340 1341 1342
f 1341 1340 1343
# Vertices: 4, normals: 0, texture coordinates: 0, faces: 2

o obj291
v 37 25 6
v 36 25 5
v 37 25 5
v 36 25 6
usemtl mat6
f 1344 1345 1346
f 1345 1344 1347
# Vertices: 4, normals: 0, texture coordinates: 0, faces: 2

o obj292
v 46 25 7
v 45 25 6
v 46 25 6
v 45 25 7
usemtl mat6
f 1348 1349 1350
f 1349 1348 1351
# Vertices: 4, normals: 0, texture coordinates: 0, faces: 2

o obj293
v 37 25 1
v 36 25 0
v 37 25 0
v 36 25 1
usemtl mat0
f 1352 1353 1354
f 1353 1352 1355
# Vertices: 4, normals: 0, texture coordinates: 0, faces: 2

o obj294
v 44 25 7
v 43 25 6
v 44 25 6
v 43 25 7
usemtl mat6
f 1356 1357 1358
f 1357 1356 1359
# Vertices: 4, normals: 0, texture coordinates: 0, faces: 2

o obj295
v 43 25 6
v 42 25 5
v 43 25 5
v 42 25 6
usemtl mat6
f 1360 1361 1362
f 1361 1360 1363
# Vertices: 4, normals: 0, texture coordinates: 0, faces: 2

o obj296
v 45 25 1
v 44 25 0
v 45 25 0
v 44 25 1
usemtl mat0
f 1364 1365 1366
f 1365 1364 1367
# Vertices: 4, normals: 0, texture coordinates: 0, faces: 2

o obj297
v 45 25 5
v 44 25 4
v 45 25 4
v 44 25 5
usemtl mat0
f 1368 1369 1370
f 1369 1368 1371
# Vertices: 4, normals: 0, texture coordinates: 0, faces: 2

o obj298
v 41 25 6
v 40 25 5
v 41 25 5
v 40 25 6
usemtl mat6
f 1372 1373 1374
f 1373 1372 1375
# Vertices: 4, normals: 0, texture coordinates: 0, faces: 2

o obj299
v 41 25 2
v 40.5 25 1.5
v 41 25 1.5
v 40.5 25 1
v 40 25 2
v 40 25 1
usemtl mat6
f 1376 1377 1378
f 1379 1380 1381
f 1380 1379 1377
f 1380 1377 1376
# Vertices: 6, normals: 0, texture coordinates: 0, faces: 4

o obj300
v 46 25 2
v 45 25 1.5
v 46 25 1.5
v 45 25 2
usemtl mat0
f 1382 1383 1384
f 1383 1382 1385
# Vertices: 4, normals: 0, texture coordinates: 0, faces: 2

o obj301
v 46 25 5
v 45 25 4
v 46 25 4
v 45 25 5
usemtl mat6
f 1386 1387 1388
f 1387 1386 1389
# Vertices: 4, normals: 0, texture coordinates: 0, faces: 2

o obj302
v 45 25 4
v 44 25 3
v 45 25 3
v 44 25 4
usemtl mat6
f 1390 1391 1392
f 1391 1390 1393
# Vertices: 4, normals: 0, texture coordinates: 0, faces: 2

o obj303
v 46 25 6
v 45 25 5
v 46 25 5
v 45 25 6
usemtl mat0
f 1394 1395 1396
f 1395 1394 1397
# Vertices: 4, normals: 0, texture coordinates: 0, faces: 2

o obj304
v 41 25 5
v 40 25 4
v 41 25 4
v 40 25 5
usemtl mat0
f 1398 1399 1400
f 1399 1398 1401
# Vertices: 4, normals: 0, texture coordinates: 0, faces: 2

o obj305
v 41 25 3
v 40 25 2
v 41 25 2
v 40 25 3
usemtl mat0
f 1402 1403 1404
f 1403 1402 1405
# Vertices: 4, normals: 0, texture coordinates: 0, faces: 2

o obj306
v 38 25 2
v 37 25 1
v 38 25 1
v 37 25 2
usemtl mat0
f 1406 1407 1408
f 1407 1406 1409
# Vertices: 4, normals: 0, texture coordinates: 0, faces: 2

o obj307
v 38 25 1
v 37 25 0
v 38 25 0
v 37 25 1
usemtl mat6
f 1410 1411 1412
f 1411 1410 1413
# Vertices: 4, normals: 0, texture coordinates: 0, faces: 2

o obj308
v 44 25 1
v 43 25 0
v 44 25 0
v 43 25 1
usemtl mat6
f 1414 1415 1416
f 1415 1414 1417
# Vertices: 4, normals: 0, texture coordinates: 0, faces: 2

o obj309
v 39 25 7
v 38 25 6
v 39 25 6
v 38 25 7
usemtl mat0
f 1418 1419 1420
f 1419 1418 1421
# Vertices: 4, normals: 0, texture coordinates: 0, faces: 2

o obj310
v 39 25 6
v 38 25 5
v 39 25 5
v 38 25 6
usemtl mat6
f 1422 1423 1424
f 1423 1422 1425
# Vertices: 4, normals: 0, texture coordinates: 0, faces: 2

o obj311
v 45 25 3
v 44 25 2
v 45 25 2
v 44 25 3
usemtl mat0
f 1426 1427 1428
f 1427 1426 1429
# Vertices: 4, normals: 0, texture coordinates: 0, faces: 2

o obj312
v 37 25 4
v 36 25 3
v 37 25 3
v 36 25 4
usemtl mat6
f 1430 1431 1432
f 1431 1430 1433
# Vertices: 4, normals: 0, texture coordinates: 0, faces: 2

o obj313
v 45 25 2
v 44 25 1.5
v 45 25 1.5
v 44 25 2
usemtl mat6
f 1434 1435 1436
f 1435 1434 1437
# Vertices: 4, normals: 0, texture coordinates: 0, faces: 2

o obj314
v 42 25 2
v 41 25 1.5
v 42 25 1.5
v 41 25 2
usemtl mat0
f 1438 1439 1440
f 1439 1438 1441
# Vertices: 4, normals: 0, texture coordinates: 0, faces: 2

o obj315
v 38 25 5
v 37 25 4
v 38 25 4
v 37 25 5
usemtl mat6
f 1442 1443 1444
f 1443 1442 1445
# Vertices: 4, normals: 0, texture coordinates: 0, faces: 2

o obj316
v 44 25 2
v 43 25 1.5
v 44 25 1.5
v 43 25 2
usemtl mat0
f 1446 1447 1448
f 1447 1446 1449
# Vertices: 4, normals: 0, texture coordinates: 0, faces: 2

o obj317
v 42 25 3
v 41 25 2
v 42 25 2
v 41 25 3
usemtl mat6
f 1450 1451 1452
f 1451 1450 1453
# Vertices: 4, normals: 0, texture coordinates: 0, faces: 2

o obj318
v 40 25 1
v 39 25 0
v 40 25 0
v 39 25 1
usemtl mat6
f 1454 1455 1456
f 1455 1454 1457
# Vertices: 4, normals: 0, texture coordinates: 0, faces: 2

o obj319
v 39 25 4
v 38 25 3
v 39 25 3
v 38 25 4
usemtl mat6
f 1458 1459 1460
f 1459 1458 1461
# Vertices: 4, normals: 0, texture coordinates: 0, faces: 2

o obj320
v 43 25 2
v 42 25 3
v 42 25 2
v 43 25 3
usemtl mat0
f 1462 1463 1464
f 1463 1462 1465
# Vertices: 4, normals: 0, texture coordinates: 0, faces: 2

o obj321
v 43 25 7
v 42 25 6
v 43 25 6
v 42 25 7
usemtl mat0
f 1466 1467 1468
f 1467 1466 1469
# Vertices: 4, normals: 0, texture coordinates: 0, faces: 2

o obj322
v 43 25 2
v 42 25 1.5
v 43 25 1.5
v 42 25 2
usemtl mat6
f 1470 1471 1472
f 1471 1470 1473
# Vertices: 4, normals: 0, texture coordinates: 0, faces: 2

o obj323
v 40 25 5
v 39 25 4
v 40 25 4
v 39 25 5
usemtl mat6
f 1474 1475 1476
f 1475 1474 1477
# Vertices: 4, normals: 0, texture coordinates: 0, faces: 2

o obj324
v 46 25 1
v 45 25 0
v 46 25 0
v 45 25 1
usemtl mat6
f 1478 1479 1480
f 1479 1478 1481
# Vertices: 4, normals: 0, texture coordinates: 0, faces: 2

o obj325
v 44 25 2
v 43 25 3
v 43 25 2
v 44 25 3
usemtl mat6
f 1482 1483 1484
f 1483 1482 1485
# Vertices: 4, normals: 0, texture coordinates: 0, faces: 2

o obj326
v 43 25 4
v 42 25 3
v 43 25 3
v 42 25 4
usemtl mat6
f 1486 1487 1488
f 1487 1486 1489
# Vertices: 4, normals: 0, texture coordinates: 0, faces: 2

o obj327
v 43 25 1
v 42 25 0
v 43 25 0
v 42 25 1
usemtl mat0
f 1490 1491 1492
f 1491 1490 1493
# Vertices: 4, normals: 0, texture coordinates: 0, faces: 2

o obj328
v 37 25 7
v 36 25 6
v 37 25 6
v 36 25 7
usemtl mat0
f 1494 1495 1496
f 1495 1494 1497
# Vertices: 4, normals: 0, texture coordinates: 0, faces: 2

o obj329
v 37 25 2
v 36 25 1
v 37 25 1
v 36 25 2
usemtl mat6
f 1498 1499 1500
f 1499 1498 1501
# Vertices: 4, normals: 0, texture coordinates: 0, faces: 2

o obj330
v 42 25 7
v 41 25 6
v 42 25 6
v 41 25 7
usemtl mat6
f 1502 1503 1504
f 1503 1502 1505
# Vertices: 4, normals: 0, texture coordinates: 0, faces: 2

o obj331
v 42 25 5
v 41 25 4
v 42 25 4
v 41 25 5
usemtl mat6
f 1506 1507 1508
f 1507 1506 1509
# Vertices: 4, normals: 0, texture coordinates: 0, faces: 2

o obj332
v 37 25 5
v 36 25 4
v 37 25 4
v 36 25 5
usemtl mat0
f 1510 1511 1512
f 1511 1510 1513
# Vertices: 4, normals: 0, texture coordinates: 0, faces: 2

o obj333
v 42 25 4
v 41 25 3
v 42 25 3
v 41 25 4
usemtl mat0
f 1514 1515 1516
f 1515 1514 1517
# Vertices: 4, normals: 0, texture coordinates: 0, faces: 2

o obj334
v 44 25 4
v 43 25 3
v 44 25 3
v 43 25 4
usemtl mat0
f 1518 1519 1520
f 1519 1518 1521
# Vertices: 4, normals: 0, texture coordinates: 0, faces: 2

o obj335
v 38 25 4
v 37 25 3
v 38 25 3
v 37 25 4
usemtl mat0
f 1522 1523 1524
f 1523 1522 1525
# Vertices: 4, normals: 0, texture coordinates: 0, faces: 2

o obj336
v 42 25 1
v 41 25 0
v 42 25 0
v 41 25 1
usemtl mat6
f 1526 1527 1528
f 1527 1526 1529
# Vertices: 4, normals: 0, texture coordinates: 0, faces: 2

o obj337
v 39 25 3
v 38 25 2
v 39 25 2
v 38 25 3
usemtl mat0
f 1530 1531 1532
f 1531 1530 1533
# Vertices: 4, normals: 0, texture coordinates: 0, faces: 2

o obj338
v 46 25 4
v 45 25 3
v 46 25 3
v 45 25 4
usemtl mat0
f 1534 1535 1536
f 1535 1534 1537
# Vertices: 4, normals: 0, texture coordinates: 0, faces: 2

o obj339
v 40 25 3
v 39 25 2
v 40 25 2
v 39 25 3
usemtl mat6
f 1538 1539 1540
f 1539 1538 1541
# Vertices: 4, normals: 0, texture coordinates: 0, faces: 2

o obj340
v 43 25 5
v 42 25 4
v 43 25 4
v 42 25 5
usemtl mat0
f 1542 1543 1544
f 1543 1542 1545
# Vertices: 4, normals: 0, texture coordinates: 0, faces: 2

o obj341
v 40 25 1
v 39 25 2
v 39 25 1
v 40 25 2
usemtl mat0
f 1546 1547 1548
f 1547 1546 1549
# Vertices: 4, normals: 0, texture coordinates: 0, faces: 2

o obj342
v 40 25 3
v 39 25 4
v 39 25 3
v 40 25 4
usemtl mat0
f 1550 1551 1552
f 1551 1550 1553
# Vertices: 4, normals: 0, texture coordinates: 0, faces: 2

o obj343
v 44 25 6
v 43 25 5
v 44 25 5
v 43 25 6
usemtl mat0
f 1554 1555 1556
f 1555 1554 1557
# Vertices: 4, normals: 0, texture coordinates: 0, faces: 2

o obj344
v 40 25 7
v 39 25 6
v 40 25 6
v 39 25 7
usemtl mat6
f 1558 1559 1560
f 1559 1558 1561
# Vertices: 4, normals: 0, texture coordinates: 0, faces: 2

o obj345
v 41 25 4
v 40 25 3
v 41 25 3
v 40 25 4
usemtl mat6
f 1562 1563 1564
f 1563 1562 1565
# Vertices: 4, normals: 0, texture coordinates: 0, faces: 2

o obj346
v 41 25 7
v 40 25 6
v 41 25 6
v 40 25 7
usemtl mat0
f 1566 1567 1568
f 1567 1566 1569
# Vertices: 4, normals: 0, texture coordinates: 0, faces: 2

o obj347
v 38 25 6
v 37 25 5
v 38 25 5
v 37 25 6
usemtl mat0
f 1570 1571 1572
f 1571 1570 1573
# Vertices: 4, normals: 0, texture coordinates: 0, faces: 2

o obj348
v 38 25 2
v 37 25 3
v 37 25 2
v 38 25 3
usemtl mat6
f 1574 1575 1576
f 1575 1574 1577
# Vertices: 4, normals: 0, texture coordinates: 0, faces: 2

o obj349
v 39 25 1
v 38 25 0
v 39 25 0
v 38 25 1
usemtl mat0
f 1578 1579 1580
f 1579 1578 1581
# Vertices: 4, normals: 0, texture coordinates: 0, faces: 2

o obj350
v 45 25 7
v 44 25 6
v 45 25 6
v 44 25 7
usemtl mat0
f 1582 1583 1584
f 1583 1582 1585
# Vertices: 4, normals: 0, texture coordinates: 0, faces: 2

o obj351
v 45 25 6
v 44 25 5
v 45 25 5
v 44 25 6
usemtl mat6
f 1586 1587 1588
f 1587 1586 1589
# Vertices: 4, normals: 0, texture coordinates: 0, faces: 2

o obj352
v 39 25 5
v 38 25 4
v 39 25 4
v 38 25 5
usemtl mat0
f 1590 1591 1592
f 1591 1590 1593
# Vertices: 4, normals: 0, texture coordinates: 0, faces: 2

o obj353
v 39 25 2
v 38 25 1
v 39 25 1
v 38 25 2
usemtl mat6
f 1594 1595 1596
f 1595 1594 1597
# Vertices: 4, normals: 0, texture coordinates: 0, faces: 2

o obj354
v 46 25 3
v 45 25 2
v 46 25 2
v 45 25 3
usemtl mat6
f 1598 1599 1600
f 1599 1598 1601
# Vertices: 4, normals: 0, texture coordinates: 0, faces: 2

o obj355
v 41 25 1
v 40 25 0
v 41 25 0
v 40 25 1
v 40.5 25 1
usemtl mat0
f 1602 1603 1604
f 1603 1602 1605
f 1605 1602 1606
# Vertices: 5, normals: 0, texture coordinates: 0, faces: 3

o obj356
v 22 25 5
v 21 25 4
v 22 25 4
v 21 25 5
usemtl mat6
f 1607 1608 1609
f 1608 1607 1610
# Vertices: 4, normals: 0, texture coordinates: 0, faces: 2

o obj357
v 15 25 3
v 14 25 2
v 15 25 2
v 14 25 3
usemtl mat0
f 1611 1612 1613
f 1612 1611 1614
# Vertices: 4, normals: 0, texture coordinates: 0, faces: 2

o obj358
v 17.19761848 25 5.65216494
v 17 25 6
v 17 25 5.59403658
v 18 25 5.88818169
v 18 25 6
usemtl mat0
f 1615 1616 1617
f 1616 1615 1618
f 1616 1618 1619
# Vertices: 5, normals: 0, texture coordinates: 0, faces: 3

o obj359
v 16 25 7
v 15 25 6
v 16 25 6
v 15 25 7
usemtl mat6
f 1620 1621 1622
f 1621 1620 1623
# Vertices: 4, normals: 0, texture coordinates: 0, faces: 2

o obj360
v 15 25 6
v 14 25 5
v 15 25 5
v 14 25 6
usemtl mat6
f 1624 1625 1626
f 1625 1624 1627
# Vertices: 4, normals: 0, texture coordinates: 0, faces: 2

o obj361
v 24 25 7
v 23 25 6
v 24 25 6
v 23 25 7
usemtl mat6
f 1628 1629 1630
f 1629 1628 1631
# Vertices: 4, normals: 0, texture coordinates: 0, faces: 2

o obj362
v 15 25 1
v 14 25 0
v 15 25 0
v 14 25 1
usemtl mat0
f 1632 1633 1634
f 1633 1632 1635
# Vertices: 4, normals: 0, texture coordinates: 0, faces: 2

o obj363
v 22 25 7
v 21 25 6
v 22 25 6
v 21 25 7
usemtl mat6
f 1636 1637 1638
f 1637 1636 1639
# Vertices: 4, normals: 0, texture coordinates: 0, faces: 2

o obj364
v 21 25 6
v 20 25 5
v 21 25 5
v 20 25 6
usemtl mat6
f 1640 1641 1642
f 1641 1640 1643
# Vertices: 4, normals: 0, texture coordinates: 0, faces: 2

o obj365
v 23 25 1
v 22 25 0
v 23 25 0
v 22 25 1
usemtl mat0
f 1644 1645 1646
f 1645 1644 1647
# Vertices: 4, normals: 0, texture coordinates: 0, faces: 2

o obj366
v 23 25 5
v 22 25 4
v 23 25 4
v 22 25 5
usemtl mat0
f 1648 1649 1650
f 1649 1648 1651
# Vertices: 4, normals: 0, texture coordinates: 0, faces: 2

o obj367
v 18 25 6
v 18 25 5.88818169
v 18.38014603 25 6
usemtl mat6
f 1652 1653 1654
# Vertices: 3, normals: 0, texture coordinates: 0, faces: 1

o obj368
v 24 25 2
v 23 25 1
v 24 25 1
v 23 25 2
usemtl mat0
f 1655 1656 1657
f 1656 1655 1658
# Vertices: 4, normals: 0, texture coordinates: 0, faces: 2

o obj369
v 24 25 5
v 23 25 4
v 24 25 4
v 23 25 5
usemtl mat6
f 1659 1660 1661
f 1660 1659 1662
# Vertices: 4, normals: 0, texture coordinates: 0, faces: 2

o obj370
v 23 25 4
v 22 25 3
v 23 25 3
v 22 25 4
usemtl mat6
f 1663 1664 1665
f 1664 1663 1666
# Vertices: 4, normals: 0, texture coordinates: 0, faces: 2

o obj371
v 24 25 6
v 23 25 5
v 24 25 5
v 23 25 6
usemtl mat0
f 1667 1668 1669
f 1668 1667 1670
# Vertices: 4, normals: 0, texture coordinates: 0, faces: 2

o obj372
v 16 25 2
v 15 25 1
v 16 25 1
v 15 25 2
usemtl mat0
f 1671 1672 1673
f 1672 1671 1674
# Vertices: 4, normals: 0, texture coordinates: 0, faces: 2

o obj373
v 16 25 1
v 15 25 0
v 16 25 0
v 15 25 1
usemtl mat6
f 1675 1676 1677
f 1676 1675 1678
# Vertices: 4, normals: 0, texture coordinates: 0, faces: 2

o obj374
v 22 25 1
v 21 25 0
v 22 25 0
v 21 25 1
usemtl mat6
f 1679 1680 1681
f 1680 1679 1682
# Vertices: 4, normals: 0, texture coordinates: 0, faces: 2

o obj375
v 17 25 7
v 16 25 6
v 17 25 6
v 16 25 7
usemtl mat0
f 1683 1684 1685
f 1684 1683 1686
# Vertices: 4, normals: 0, texture coordinates: 0, faces: 2

o obj376
v 16.28424835 25 5.38350153
v 16 25 5
v 16.39705276 25 5
v 16 25 6
v 17 25 5.59403658
v 17 25 6
usemtl mat6
f 1687 1688 1689
f 1688 1687 1690
f 1690 1687 1691
f 1690 1691 1692
# Vertices: 6, normals: 0, texture coordinates: 0, faces: 4

o obj377
v 23 25 3
v 22 25 2
v 23 25 2
v 22 25 3
usemtl mat0
f 1693 1694 1695
f 1694 1693 1696
# Vertices: 4, normals: 0, texture coordinates: 0, faces: 2

o obj378
v 15 25 4
v 14 25 3
v 15 25 3
v 14 25 4
usemtl mat6
f 1697 1698 1699
f 1698 1697 1700
# Vertices: 4, normals: 0, texture coordinates: 0, faces: 2

o obj379
v 23 25 2
v 22 25 1
v 23 25 1
v 22 25 2
usemtl mat6
f 1701 1702 1703
f 1702 1701 1704
# Vertices: 4, normals: 0, texture coordinates: 0, faces: 2

o obj380
v 16 25 5
v 15 25 4
v 16 25 4
v 15 25 5
usemtl mat6
f 1705 1706 1707
f 1706 1705 1708
# Vertices: 4, normals: 0, texture coordinates: 0, faces: 2

o obj381
v 22 25 2
v 21 25 1
v 22 25 1
v 21 25 2
usemtl mat0
f 1709 1710 1711
f 1710 1709 1712
# Vertices: 4, normals: 0, texture coordinates: 0, faces: 2

o obj382
v 18 25 1
v 17 25 0
v 18 25 0
v 17 25 1
usemtl mat6
f 1713 1714 1715
f 1714 1713 1716
# Vertices: 4, normals: 0, texture coordinates: 0, faces: 2

o obj383
v 21 25 7
v 20 25 6
v 21 25 6
v 20 25 7
usemtl mat0
f 1717 1718 1719
f 1718 1717 1720
# Vertices: 4, normals: 0, texture coordinates: 0, faces: 2

o obj384
v 24 25 1
v 23 25 0
v 24 25 0
v 23 25 1
usemtl mat6
f 1721 1722 1723
f 1722 1721 1724
# Vertices: 4, normals: 0, texture coordinates: 0, faces: 2

o obj385
v 22 25 3
v 21 25 2
v 22 25 2
v 21 25 3
usemtl mat6
f 1725 1726 1727
f 1726 1725 1728
# Vertices: 4, normals: 0, texture coordinates: 0, faces: 2

o obj386
v 21 25 1
v 20 25 0
v 21 25 0
v 20 25 1
usemtl mat0
f 1729 1730 1731
f 1730 1729 1732
# Vertices: 4, normals: 0, texture coordinates: 0, faces: 2

o obj387
v 15 25 7
v 14 25 6
v 15 25 6
v 14 25 7
usemtl mat0
f 1733 1734 1735
f 1734 1733 1736
# Vertices: 4, normals: 0, texture coordinates: 0, faces: 2

o obj388
v 15 25 2
v 14 25 1
v 15 25 1
v 14 25 2
usemtl mat6
f 1737 1738 1739
f 1738 1737 1740
# Vertices: 4, normals: 0, texture coordinates: 0, faces: 2

o obj389
v 20 25 7
v 19.49058914 25 6
v 20 25 6
v 19.44637489 25 6.15031052
v 19.40216255 25 6.30062151
v 19 25 7
v 19 25 6.18232727
usemtl mat6
f 1741 1742 1743
f 1742 1741 1744
f 1744 1741 1745
f 1745 1746 1747
f 1746 1745 1741
# Vertices: 7, normals: 0, texture coordinates: 0, faces: 5

o obj390
v 15 25 5
v 14 25 4
v 15 25 4
v 14 25 5
usemtl mat0
f 1748 1749 1750
f 1749 1748 1751
# Vertices: 4, normals: 0, texture coordinates: 0, faces: 2

o obj391
v 22 25 4
v 21 25 3
v 22 25 3
v 21 25 4
usemtl mat0
f 1752 1753 1754
f 1753 1752 1755
# Vertices: 4, normals: 0, texture coordinates: 0, faces: 2

o obj392
v 16 25 4
v 15 25 3
v 16 25 3
v 15 25 4
usemtl mat0
f 1756 1757 1758
f 1757 1756 1759
# Vertices: 4, normals: 0, texture coordinates: 0, faces: 2

o obj393
v 20 25 1
v 19 25 0
v 20 25 0
v 19 25 1
usemtl mat6
f 1760 1761 1762
f 1761 1760 1763
# Vertices: 4, normals: 0, texture coordinates: 0, faces: 2

o obj394
v 16.98534393 25 3
v 17 25 2.95017314
v 17 25 3
usemtl mat0
f 1764 1765 1766
# Vertices: 3, normals: 0, texture coordinates: 0, faces: 1

o obj395
v 24 25 4
v 23 25 3
v 24 25 3
v 23 25 4
usemtl mat0
f 1767 1768 1769
f 1768 1767 1770
# Vertices: 4, normals: 0, texture coordinates: 0, faces: 2

o obj396
v 22 25 6
v 21 25 5
v 22 25 5
v 21 25 6
usemtl mat0
f 1771 1772 1773
f 1772 1771 1774
# Vertices: 4, normals: 0, texture coordinates: 0, faces: 2

o obj397
v 18 25 7
v 17 25 6
v 18 25 6
v 17 25 7
usemtl mat6
f 1775 1776 1777
f 1776 1775 1778
# Vertices: 4, normals: 0, texture coordinates: 0, faces: 2

o obj398
v 19 25 6.18232727
v 18 25 6
v 18.38014603 25 6
v 18 25 7
v 19 25 7
usemtl mat0
f 1779 1780 1781
f 1780 1779 1782
f 1782 1779 1783
# Vertices: 5, normals: 0, texture coordinates: 0, faces: 3

o obj399
v 16 25 6
v 15 25 5
v 16 25 5
v 15 25 6
usemtl mat0
f 1784 1785 1786
f 1785 1784 1787
# Vertices: 4, normals: 0, texture coordinates: 0, faces: 2

o obj400
v 16 25 3
v 15 25 2
v 16 25 2
v 15 25 3
usemtl mat6
f 1788 1789 1790
f 1789 1788 1791
# Vertices: 4, normals: 0, texture coordinates: 0, faces: 2

o obj401
v 17 25 1
v 16 25 0
v 17 25 0
v 16 25 1
usemtl mat0
f 1792 1793 1794
f 1793 1792 1795
# Vertices: 4, normals: 0, texture coordinates: 0, faces: 2

o obj402
v 23 25 7
v 22 25 6
v 23 25 6
v 22 25 7
usemtl mat0
f 1796 1797 1798
f 1797 1796 1799
# Vertices: 4, normals: 0, texture coordinates: 0, faces: 2

o obj403
v 23 25 6
v 22 25 5
v 23 25 5
v 22 25 6
usemtl mat6
f 1800 1801 1802
f 1801 1800 1803
# Vertices: 4, normals: 0, texture coordinates: 0, faces: 2

o obj404
v 17 25 2
v 16 25 1
v 17 25 1
v 16 25 2
usemtl mat6
f 1804 1805 1806
f 1805 1804 1807
# Vertices: 4, normals: 0, texture coordinates: 0, faces: 2

o obj405
v 24 25 3
v 23 25 2
v 24 25 2
v 23 25 3
usemtl mat6
f 1808 1809 1810
f 1809 1808 1811
# Vertices: 4, normals: 0, texture coordinates: 0, faces: 2

o obj406
v 19 25 1
v 18 25 0
v 19 25 0
v 18 25 1
usemtl mat0
f 1812 1813 1814
f 1813 1812 1815
# Vertices: 4, normals: 0, texture coordinates: 0, faces: 2

o obj407
v 12 25 5
v 11 25 4
v 12 25 4
v 11 25 5
usemtl mat6
f 1816 1817 1818
f 1817 1816 1819
# Vertices: 4, normals: 0, texture coordinates: 0, faces: 2

o obj408
v 14 25 7
v 13 25 6
v 14 25 6
v 13 25 7
usemtl mat6
f 1820 1821 1822
f 1821 1820 1823
# Vertices: 4, normals: 0, texture coordinates: 0, faces: 2

o obj409
v 12 25 7
v 11 25 6
v 12 25 6
v 11 25 7
usemtl mat6
f 1824 1825 1826
f 1825 1824 1827
# Vertices: 4, normals: 0, texture coordinates: 0, faces: 2

o obj410
v 11 25 6
v 10 25 5
v 11 25 5
v 10 25 6
usemtl mat6
f 1828 1829 1830
f 1829 1828 1831
# Vertices: 4, normals: 0, texture coordinates: 0, faces: 2

o obj411
v 13 25 1
v 12 25 0
v 13 25 0
v 12 25 1
usemtl mat0
f 1832 1833 1834
f 1833 1832 1835
# Vertices: 4, normals: 0, texture coordinates: 0, faces: 2

o obj412
v 13 25 5
v 12 25 4
v 13 25 4
v 12 25 5
usemtl mat0
f 1836 1837 1838
f 1837 1836 1839
# Vertices: 4, normals: 0, texture coordinates: 0, faces: 2

o obj413
v 14 25 2
v 13 25 1
v 14 25 1
v 13 25 2
usemtl mat0
f 1840 1841 1842
f 1841 1840 1843
# Vertices: 4, normals: 0, texture coordinates: 0, faces: 2

o obj414
v 14 25 5
v 13 25 4
v 14 25 4
v 13 25 5
usemtl mat6
f 1844 1845 1846
f 1845 1844 1847
# Vertices: 4, normals: 0, texture coordinates: 0, faces: 2

o obj415
v 13 25 4
v 12 25 3
v 13 25 3
v 12 25 4
usemtl mat6
f 1848 1849 1850
f 1849 1848 1851
# Vertices: 4, normals: 0, texture coordinates: 0, faces: 2

o obj416
v 14 25 6
v 13 25 5
v 14 25 5
v 13 25 6
usemtl mat0
f 1852 1853 1854
f 1853 1852 1855
# Vertices: 4, normals: 0, texture coordinates: 0, faces: 2

o obj417
v 12 25 1
v 11 25 0
v 12 25 0
v 11 25 1
usemtl mat6
f 1856 1857 1858
f 1857 1856 1859
# Vertices: 4, normals: 0, texture coordinates: 0, faces: 2

o obj418
v 13 25 3
v 12 25 2
v 13 25 2
v 12 25 3
usemtl mat0
f 1860 1861 1862
f 1861 1860 1863
# Vertices: 4, normals: 0, texture coordinates: 0, faces: 2

o obj419
v 13 25 2
v 12 25 1
v 13 25 1
v 12 25 2
usemtl mat6
f 1864 1865 1866
f 1865 1864 1867
# Vertices: 4, normals: 0, texture coordinates: 0, faces: 2

o obj420
v 12 25 2
v 11 25 1
v 12 25 1
v 11 25 2
usemtl mat0
f 1868 1869 1870
f 1869 1868 1871
# Vertices: 4, normals: 0, texture coordinates: 0, faces: 2

o obj421
v 11 25 3
v 10 25 2
v 11 25 2
v 10 25 3
usemtl mat0
f 1872 1873 1874
f 1873 1872 1875
# Vertices: 4, normals: 0, texture coordinates: 0, faces: 2

o obj422
v 11 25 7
v 10 25 6
v 11 25 6
v 10 25 7
usemtl mat0
f 1876 1877 1878
f 1877 1876 1879
# Vertices: 4, normals: 0, texture coordinates: 0, faces: 2

o obj423
v 11 25 2
v 10 25 1
v 11 25 1
v 10 25 2
usemtl mat6
f 1880 1881 1882
f 1881 1880 1883
# Vertices: 4, normals: 0, texture coordinates: 0, faces: 2

o obj424
v 14 25 1
v 13 25 0
v 14 25 0
v 13 25 1
usemtl mat6
f 1884 1885 1886
f 1885 1884 1887
# Vertices: 4, normals: 0, texture coordinates: 0, faces: 2

o obj425
v 12 25 3
v 11 25 2
v 12 25 2
v 11 25 3
usemtl mat6
f 1888 1889 1890
f 1889 1888 1891
# Vertices: 4, normals: 0, texture coordinates: 0, faces: 2

o obj426
v 11 25 4
v 10 25 3
v 11 25 3
v 10 25 4
usemtl mat6
f 1892 1893 1894
f 1893 1892 1895
# Vertices: 4, normals: 0, texture coordinates: 0, faces: 2

o obj427
v 11 25 1
v 10 25 0
v 11 25 0
v 10 25 1
usemtl mat0
f 1896 1897 1898
f 1897 1896 1899
# Vertices: 4, normals: 0, texture coordinates: 0, faces: 2

o obj428
v 12 25 4
v 11 25 3
v 12 25 3
v 11 25 4
usemtl mat0
f 1900 1901 1902
f 1901 1900 1903
# Vertices: 4, normals: 0, texture coordinates: 0, faces: 2

o obj429
v 14 25 4
v 13 25 3
v 14 25 3
v 13 25 4
usemtl mat0
f 1904 1905 1906
f 1905 1904 1907
# Vertices: 4, normals: 0, texture coordinates: 0, faces: 2

o obj430
v 11 25 5
v 10 25 4
v 11 25 4
v 10 25 5
usemtl mat0
f 1908 1909 1910
f 1909 1908 1911
# Vertices: 4, normals: 0, texture coordinates: 0, faces: 2

o obj431
v 12 25 6
v 11 25 5
v 12 25 5
v 11 25 6
usemtl mat0
f 1912 1913 1914
f 1913 1912 1915
# Vertices: 4, normals: 0, texture coordinates: 0, faces: 2

o obj432
v 13 25 7
v 12 25 6
v 13 25 6
v 12 25 7
usemtl mat0
f 1916 1917 1918
f 1917 1916 1919
# Vertices: 4, normals: 0, texture coordinates: 0, faces: 2

o obj433
v 13 25 6
v 12 25 5
v 13 25 5
v 12 25 6
usemtl mat6
f 1920 1921 1922
f 1921 1920 1923
# Vertices: 4, normals: 0, texture coordinates: 0, faces: 2

o obj434
v 14 25 3
v 13 25 2
v 14 25 2
v 13 25 3
usemtl mat6
f 1924 1925 1926
f 1925 1924 1927
# Vertices: 4, normals: 0, texture coordinates: 0, faces: 2

o obj435
v 8 25 5
v 7 25 4
v 8 25 4
v 7 25 5
usemtl mat6
f 1928 1929 1930
f 1929 1928 1931
# Vertices: 4, normals: 0, texture coordinates: 0, faces: 2

o obj436
v 6 25 6
v 5 25 5
v 6 25 5
v 5 25 6
usemtl mat0
f 1932 1933 1934
f 1933 1932 1935
# Vertices: 4, normals: 0, texture coordinates: 0, faces: 2

o obj437
v 1 25 3
v 0 25 2
v 1 25 2
v 0 25 3
usemtl mat0
f 1936 1937 1938
f 1937 1936 1939
# Vertices: 4, normals: 0, texture coordinates: 0, faces: 2

o obj438
v 4 25 6
v 3 25 5
v 4 25 5
v 3 25 6
usemtl mat0
f 1940 1941 1942
f 1941 1940 1943
# Vertices: 4, normals: 0, texture coordinates: 0, faces: 2

o obj439
v 2 25 7
v 1 25 6
v 2 25 6
v 1 25 7
usemtl mat6
f 1944 1945 1946
f 1945 1944 1947
# Vertices: 4, normals: 0, texture coordinates: 0, faces: 2

o obj440
v 1 25 6
v 0 25 5
v 1 25 5
v 0 25 6
usemtl mat6
f 1948 1949 1950
f 1949 1948 1951
# Vertices: 4, normals: 0, texture coordinates: 0, faces: 2

o obj441
v 10 25 7
v 9 25 6
v 10 25 6
v 9 25 7
usemtl mat6
f 1952 1953 1954
f 1953 1952 1955
# Vertices: 4, normals: 0, texture coordinates: 0, faces: 2

o obj442
v 1 25 1
v 0 25 0
v 1 25 0
v 0 25 1
usemtl mat0
f 1956 1957 1958
f 1957 1956 1959
# Vertices: 4, normals: 0, texture coordinates: 0, faces: 2

o obj443
v 8 25 7
v 7 25 6
v 8 25 6
v 7 25 7
usemtl mat6
f 1960 1961 1962
f 1961 1960 1963
# Vertices: 4, normals: 0, texture coordinates: 0, faces: 2

o obj444
v 7 25 6
v 6 25 5
v 7 25 5
v 6 25 6
usemtl mat6
f 1964 1965 1966
f 1965 1964 1967
# Vertices: 4, normals: 0, texture coordinates: 0, faces: 2

o obj445
v 9 25 1
v 8 25 0
v 9 25 0
v 8 25 1
usemtl mat0
f 1968 1969 1970
f 1969 1968 1971
# Vertices: 4, normals: 0, texture coordinates: 0, faces: 2

o obj446
v 9 25 5
v 8 25 4
v 9 25 4
v 8 25 5
usemtl mat0
f 1972 1973 1974
f 1973 1972 1975
# Vertices: 4, normals: 0, texture coordinates: 0, faces: 2

o obj447
v 5 25 6
v 4 25 5
v 5 25 5
v 4 25 6
usemtl mat6
f 1976 1977 1978
f 1977 1976 1979
# Vertices: 4, normals: 0, texture coordinates: 0, faces: 2

o obj448
v 5 25 1
v 4 25 2
v 4 25 1
v 5 25 2
usemtl mat6
f 1980 1981 1982
f 1981 1980 1983
# Vertices: 4, normals: 0, texture coordinates: 0, faces: 2

o obj449
v 10 25 2
v 9 25 1
v 10 25 1
v 9 25 2
usemtl mat0
f 1984 1985 1986
f 1985 1984 1987
# Vertices: 4, normals: 0, texture coordinates: 0, faces: 2

o obj450
v 10 25 5
v 9 25 4
v 10 25 4
v 9 25 5
usemtl mat6
f 1988 1989 1990
f 1989 1988 1991
# Vertices: 4, normals: 0, texture coordinates: 0, faces: 2

o obj451
v 9 25 4
v 8 25 3
v 9 25 3
v 8 25 4
usemtl mat6
f 1992 1993 1994
f 1993 1992 1995
# Vertices: 4, normals: 0, texture coordinates: 0, faces: 2

o obj452
v 10 25 6
v 9 25 5
v 10 25 5
v 9 25 6
usemtl mat0
f 1996 1997 1998
f 1997 1996 1999
# Vertices: 4, normals: 0, texture coordinates: 0, faces: 2

o obj453
v 5 25 5
v 4 25 4
v 5 25 4
v 4 25 5
usemtl mat0
f 2000 2001 2002
f 2001 2000 2003
# Vertices: 4, normals: 0, texture coordinates: 0, faces: 2

o obj454
v 5 25 3
v 4 25 2
v 5 25 2
v 4 25 3
usemtl mat0
f 2004 2005 2006
f 2005 2004 2007
# Vertices: 4, normals: 0, texture coordinates: 0, faces: 2

o obj455
v 2 25 2
v 1 25 1
v 2 25 1
v 1 25 2
usemtl mat0
f 2008 2009 2010
f 2009 2008 2011
# Vertices: 4, normals: 0, texture coordinates: 0, faces: 2

o obj456
v 2 25 1
v 1 25 0
v 2 25 0
v 1 25 1
usemtl mat6
f 2012 2013 2014
f 2013 2012 2015
# Vertices: 4, normals: 0, texture coordinates: 0, faces: 2

o obj457
v 8 25 1
v 7 25 0
v 8 25 0
v 7 25 1
usemtl mat6
f 2016 2017 2018
f 2017 2016 2019
# Vertices: 4, normals: 0, texture coordinates: 0, faces: 2

o obj458
v 3 25 7
v 2 25 6
v 3 25 6
v 2 25 7
usemtl mat0
f 2020 2021 2022
f 2021 2020 2023
# Vertices: 4, normals: 0, texture coordinates: 0, faces: 2

o obj459
v 3 25 6
v 2 25 5
v 3 25 5
v 2 25 6
usemtl mat6
f 2024 2025 2026
f 2025 2024 2027
# Vertices: 4, normals: 0, texture coordinates: 0, faces: 2

o obj460
v 9 25 2
v 8 25 3
v 8 25 2
v 9 25 3
usemtl mat0
f 2028 2029 2030
f 2029 2028 2031
# Vertices: 4, normals: 0, texture coordinates: 0, faces: 2

o obj461
v 1 25 4
v 0 25 3
v 1 25 3
v 0 25 4
usemtl mat6
f 2032 2033 2034
f 2033 2032 2035
# Vertices: 4, normals: 0, texture coordinates: 0, faces: 2

o obj462
v 9 25 2
v 8 25 1
v 9 25 1
v 8 25 2
usemtl mat6
f 2036 2037 2038
f 2037 2036 2039
# Vertices: 4, normals: 0, texture coordinates: 0, faces: 2

o obj463
v 6 25 1
v 5 25 2
v 5 25 1
v 6 25 2
usemtl mat0
f 2040 2041 2042
f 2041 2040 2043
# Vertices: 4, normals: 0, texture coordinates: 0, faces: 2

o obj464
v 2 25 5
v 1 25 4
v 2 25 4
v 1 25 5
usemtl mat6
f 2044 2045 2046
f 2045 2044 2047
# Vertices: 4, normals: 0, texture coordinates: 0, faces: 2

o obj465
v 8 25 2
v 7 25 1
v 8 25 1
v 7 25 2
usemtl mat0
f 2048 2049 2050
f 2049 2048 2051
# Vertices: 4, normals: 0, texture coordinates: 0, faces: 2

o obj466
v 6 25 3
v 5 25 2
v 6 25 2
v 5 25 3
usemtl mat6
f 2052 2053 2054
f 2053 2052 2055
# Vertices: 4, normals: 0, texture coordinates: 0, faces: 2

o obj467
v 4 25 1
v 3 25 0
v 4 25 0
v 3 25 1
usemtl mat6
f 2056 2057 2058
f 2057 2056 2059
# Vertices: 4, normals: 0, texture coordinates: 0, faces: 2

o obj468
v 3 25 4
v 2 25 3
v 3 25 3
v 2 25 4
usemtl mat6
f 2060 2061 2062
f 2061 2060 2063
# Vertices: 4, normals: 0, texture coordinates: 0, faces: 2

o obj469
v 7 25 3
v 6 25 2
v 7 25 2
v 6 25 3
usemtl mat0
f 2064 2065 2066
f 2065 2064 2067
# Vertices: 4, normals: 0, texture coordinates: 0, faces: 2

o obj470
v 7 25 7
v 6 25 6
v 7 25 6
v 6 25 7
usemtl mat0
f 2068 2069 2070
f 2069 2068 2071
# Vertices: 4, normals: 0, texture coordinates: 0, faces: 2

o obj471
v 7 25 1
v 6 25 2
v 6 25 1
v 7 25 2
usemtl mat6
f 2072 2073 2074
f 2073 2072 2075
# Vertices: 4, normals: 0, texture coordinates: 0, faces: 2

o obj472
v 4 25 5
v 3 25 4
v 4 25 4
v 3 25 5
usemtl mat6
f 2076 2077 2078
f 2077 2076 2079
# Vertices: 4, normals: 0, texture coordinates: 0, faces: 2

o obj473
v 10 25 1
v 9 25 0
v 10 25 0
v 9 25 1
usemtl mat6
f 2080 2081 2082
f 2081 2080 2083
# Vertices: 4, normals: 0, texture coordinates: 0, faces: 2

o obj474
v 8 25 2
v 7 25 3
v 7 25 2
v 8 25 3
usemtl mat6
f 2084 2085 2086
f 2085 2084 2087
# Vertices: 4, normals: 0, texture coordinates: 0, faces: 2

o obj475
v 7 25 4
v 6 25 3
v 7 25 3
v 6 25 4
usemtl mat6
f 2088 2089 2090
f 2089 2088 2091
# Vertices: 4, normals: 0, texture coordinates: 0, faces: 2

o obj476
v 7 25 1
v 6 25 0
v 7 25 0
v 6 25 1
usemtl mat0
f 2092 2093 2094
f 2093 2092 2095
# Vertices: 4, normals: 0, texture coordinates: 0, faces: 2

o obj477
v 1 25 7
v 0 25 6
v 1 25 6
v 0 25 7
usemtl mat0
f 2096 2097 2098
f 2097 2096 2099
# Vertices: 4, normals: 0, texture coordinates: 0, faces: 2

o obj478
v 1 25 2
v 0 25 1
v 1 25 1
v 0 25 2
usemtl mat6
f 2100 2101 2102
f 2101 2100 2103
# Vertices: 4, normals: 0, texture coordinates: 0, faces: 2

o obj479
v 6 25 7
v 5 25 6
v 6 25 6
v 5 25 7
usemtl mat6
f 2104 2105 2106
f 2105 2104 2107
# Vertices: 4, normals: 0, texture coordinates: 0, faces: 2

o obj480
v 6 25 5
v 5 25 4
v 6 25 4
v 5 25 5
usemtl mat6
f 2108 2109 2110
f 2109 2108 2111
# Vertices: 4, normals: 0, texture coordinates: 0, faces: 2

o obj481
v 1 25 5
v 0 25 4
v 1 25 4
v 0 25 5
usemtl mat0
f 2112 2113 2114
f 2113 2112 2115
# Vertices: 4, normals: 0, texture coordinates: 0, faces: 2

o obj482
v 6 25 4
v 5 25 3
v 6 25 3
v 5 25 4
usemtl mat0
f 2116 2117 2118
f 2117 2116 2119
# Vertices: 4, normals: 0, texture coordinates: 0, faces: 2

o obj483
v 8 25 4
v 7 25 3
v 8 25 3
v 7 25 4
usemtl mat0
f 2120 2121 2122
f 2121 2120 2123
# Vertices: 4, normals: 0, texture coordinates: 0, faces: 2

o obj484
v 2 25 4
v 1 25 3
v 2 25 3
v 1 25 4
usemtl mat0
f 2124 2125 2126
f 2125 2124 2127
# Vertices: 4, normals: 0, texture coordinates: 0, faces: 2

o obj485
v 6 25 1
v 5 25 0
v 6 25 0
v 5 25 1
usemtl mat6
f 2128 2129 2130
f 2129 2128 2131
# Vertices: 4, normals: 0, texture coordinates: 0, faces: 2

o obj486
v 3 25 2
v 2 25 3
v 2 25 2
v 3 25 3
usemtl mat0
f 2132 2133 2134
f 2133 2132 2135
# Vertices: 4, normals: 0, texture coordinates: 0, faces: 2

o obj487
v 10 25 4
v 9 25 3
v 10 25 3
v 9 25 4
usemtl mat0
f 2136 2137 2138
f 2137 2136 2139
# Vertices: 4, normals: 0, texture coordinates: 0, faces: 2

o obj488
v 4 25 3
v 3 25 2
v 4 25 2
v 3 25 3
usemtl mat6
f 2140 2141 2142
f 2141 2140 2143
# Vertices: 4, normals: 0, texture coordinates: 0, faces: 2

o obj489
v 7 25 5
v 6 25 4
v 7 25 4
v 6 25 5
usemtl mat0
f 2144 2145 2146
f 2145 2144 2147
# Vertices: 4, normals: 0, texture coordinates: 0, faces: 2

o obj490
v 4 25 2
v 3 25 1
v 4 25 1
v 3 25 2
usemtl mat0
f 2148 2149 2150
f 2149 2148 2151
# Vertices: 4, normals: 0, texture coordinates: 0, faces: 2

o obj491
v 4 25 4
v 3 25 3
v 4 25 3
v 3 25 4
usemtl mat0
f 2152 2153 2154
f 2153 2152 2155
# Vertices: 4, normals: 0, texture coordinates: 0, faces: 2

o obj492
v 8 25 6
v 7 25 5
v 8 25 5
v 7 25 6
usemtl mat0
f 2156 2157 2158
f 2157 2156 2159
# Vertices: 4, normals: 0, texture coordinates: 0, faces: 2

o obj493
v 4 25 7
v 3 25 6
v 4 25 6
v 3 25 7
usemtl mat6
f 2160 2161 2162
f 2161 2160 2163
# Vertices: 4, normals: 0, texture coordinates: 0, faces: 2

o obj494
v 5 25 3
v 4 25 4
v 4 25 3
v 5 25 4
usemtl mat6
f 2164 2165 2166
f 2165 2164 2167
# Vertices: 4, normals: 0, texture coordinates: 0, faces: 2

o obj495
v 5 25 7
v 4 25 6
v 5 25 6
v 4 25 7
usemtl mat0
f 2168 2169 2170
f 2169 2168 2171
# Vertices: 4, normals: 0, texture coordinates: 0, faces: 2

o obj496
v 2 25 6
v 1 25 5
v 2 25 5
v 1 25 6
usemtl mat0
f 2172 2173 2174
f 2173 2172 2175
# Vertices: 4, normals: 0, texture coordinates: 0, faces: 2

o obj497
v 2 25 2
v 1 25 3
v 1 25 2
v 2 25 3
usemtl mat6
f 2176 2177 2178
f 2177 2176 2179
# Vertices: 4, normals: 0, texture coordinates: 0, faces: 2

o obj498
v 3 25 1
v 2 25 0
v 3 25 0
v 2 25 1
usemtl mat0
f 2180 2181 2182
f 2181 2180 2183
# Vertices: 4, normals: 0, texture coordinates: 0, faces: 2

o obj499
v 9 25 7
v 8 25 6
v 9 25 6
v 8 25 7
usemtl mat0
f 2184 2185 2186
f 2185 2184 2187
# Vertices: 4, normals: 0, texture coordinates: 0, faces: 2

o obj500
v 9 25 6
v 8 25 5
v 9 25 5
v 8 25 6
usemtl mat6
f 2188 2189 2190
f 2189 2188 2191
# Vertices: 4, normals: 0, texture coordinates: 0, faces: 2

o obj501
v 3 25 5
v 2 25 4
v 3 25 4
v 2 25 5
usemtl mat0
f 2192 2193 2194
f 2193 2192 2195
# Vertices: 4, normals: 0, texture coordinates: 0, faces: 2

o obj502
v 3 25 2
v 2 25 1
v 3 25 1
v 2 25 2
usemtl mat6
f 2196 2197 2198
f 2197 2196 2199
# Vertices: 4, normals: 0, texture coordinates: 0, faces: 2

o obj503
v 10 25 3
v 9 25 2
v 10 25 2
v 9 25 3
usemtl mat6
f 2200 2201 2202
f 2201 2200 2203
# Vertices: 4, normals: 0, texture coordinates: 0, faces: 2

o obj504
v 5 25 1
v 4 25 0
v 5 25 0
v 4 25 1
usemtl mat0
f 2204 2205 2206
f 2205 2204 2207
# Vertices: 4, normals: 0, texture coordinates: 0, faces: 2

o obj505
v 25 26 3
v 25 25 4
v 25 25 3
v 25 26 4
usemtl mat5
f 2208 2209 2210
f 2209 2208 2211
# Vertices: 4, normals: 0, texture coordinates: 0, faces: 2

o obj506
v 25 26 2
v 25 25 3
v 25 25 2
v 25 26 3
usemtl mat0
f 2212 2213 2214
f 2213 2212 2215
# Vertices: 4, normals: 0, texture coordinates: 0, faces: 2

o obj507
v 25 26 1
v 25 25 2
v 25 25 1
v 25 26 2
usemtl mat5
f 2216 2217 2218
f 2217 2216 2219
# Vertices: 4, normals: 0, texture coordinates: 0, faces: 2

o obj508
v 25 26 0
v 25 25 1
v 25 25 0
v 25 26 1
usemtl mat0
f 2220 2221 2222
f 2221 2220 2223
# Vertices: 4, normals: 0, texture coordinates: 0, faces: 2

o obj509
v 35 26 5
v 35 25 4
v 35 25 5
v 35 26 4
usemtl mat5
f 2224 2225 2226
f 2225 2224 2227
# Vertices: 4, normals: 0, texture coordinates: 0, faces: 2

o obj510
v 35 26 4
v 35 25 3
v 35 25 4
v 35 26 3
usemtl mat0
f 2228 2229 2230
f 2229 2228 2231
# Vertices: 4, normals: 0, texture coordinates: 0, faces: 2

o obj511
v 35 26 3
v 35 25 2
v 35 25 3
v 35 26 2
usemtl mat5
f 2232 2233 2234
f 2233 2232 2235
# Vertices: 4, normals: 0, texture coordinates: 0, faces: 2

o obj512
v 35 26 2
v 35 25 1
v 35 25 2
v 35 26 1
usemtl mat0
f 2236 2237 2238
f 2237 2236 2239
# Vertices: 4, normals: 0, texture coordinates: 0, faces: 2

o obj513
v 38 33 7
v 35 33 0
v 38 33 0
v 25 33 0
v 22 33 7
v 25 33 7
v 35 33 7
v 22 33 -0
usemtl mat0
f 2240 2241 2242
f 2241 2240 2243
f 2243 2240 2244
f 2244 2240 2245
f 2245 2240 2246
f 2244 2247 2243
# Vertices: 8, normals: 0, texture coordinates: 0, faces: 6

o obj514
v 38 33 7
v 38 30 0
v 38 26 0
v 38 33 0
usemtl mat0
f 2248 2249 2250
f 2249 2248 2251
# Vertices: 4, normals: 0, texture coordinates: 0, faces: 2

o obj515
v 22 30 -0
v 22 33 7
v 22 26 -0
v 22 33 -0
usemtl mat0
f 2252 2253 2254
f 2253 2252 2255
# Vertices: 4, normals: 0, texture coordinates: 0, faces: 2

o obj516
v 17 25 2.95017314
v 16 25 2
v 17 25 2
v 16 25 3
v 16.98534393 25 3
usemtl mat0
f 2256 2257 2258
f 2257 2256 2259
f 2259 2256 2260
# Vertices: 5, normals: 0, texture coordinates: 0, faces: 3

o obj517
v 17 25 2.95017314
v 17 25 2
v 17.27948952 25 2
usemtl mat6
f 2261 2262 2263
# Vertices: 3, normals: 0, texture coordinates: 0, faces: 1

o obj518
v 16.69119835 25 4
v 16 25 3
v 16.98534393 25 3
v 16 25 4
usemtl mat6
f 2264 2265 2266
f 2265 2264 2267
# Vertices: 4, normals: 0, texture coordinates: 0, faces: 2

o obj519
v 16.54412651 25 4.5
v 16 25 4
v 16.69119835 25 4
v 16 25 5
v 16.39705276 25 5
usemtl mat0
f 2268 2269 2270
f 2269 2268 2271
f 2271 2268 2272
# Vertices: 5, normals: 0, texture coordinates: 0, faces: 3

o obj520
v 21 25 1
v 20 25 1.91613257
v 20 25 1
v 21 25 2
v 20.28512192 25 2
usemtl mat6
f 2273 2274 2275
f 2274 2273 2276
f 2274 2276 2277
# Vertices: 5, normals: 0, texture coordinates: 0, faces: 3

o obj521
v 20 25 1
v 18 25 1
v 19 25 1
v 18 25 1.32784188
v 20 25 1.91613257
v 19.2418251 25 1.69311917
usemtl mat0
f 2278 2279 2280
f 2279 2278 2281
f 2281 2278 2282
f 2281 2282 2283
# Vertices: 6, normals: 0, texture coordinates: 0, faces: 4

o obj522
v 18 25 1.32784188
v 17 25 1
v 18 25 1
v 17.51883316 25 1.18630874
v 17 25 2
v 17.27948952 25 2
usemtl mat0
f 2284 2285 2286
f 2285 2284 2287
f 2287 2288 2285
f 2288 2287 2289
# Vertices: 6, normals: 0, texture coordinates: 0, faces: 4

o obj523
v 20 25 6
v 19.78473473 25 5
v 20 25 5
v 19.66204071 25 5.41711998
v 19.49058914 25 6
usemtl mat0
f 2290 2291 2292
f 2291 2290 2293
f 2293 2290 2294
# Vertices: 5, normals: 0, texture coordinates: 0, faces: 3

o obj524
v 21 25 5
v 20.07888031 25 4
v 21 25 4
v 19.78473473 25 5
v 20 25 5
usemtl mat0
f 2295 2296 2297
f 2296 2295 2298
f 2298 2295 2299
# Vertices: 5, normals: 0, texture coordinates: 0, faces: 3

o obj525
v 21 25 3
v 20.07888031 25 4
v 20.37302399 25 3
v 21 25 4
usemtl mat6
f 2300 2301 2302
f 2301 2300 2303
# Vertices: 4, normals: 0, texture coordinates: 0, faces: 2

o obj526
v 21 25 2
v 20.63674736 25 2.10342884
v 20.28512192 25 2
v 21 25 3
v 20.37302399 25 3
usemtl mat0
f 2304 2305 2306
f 2305 2304 2307
f 2305 2307 2308
# Vertices: 5, normals: 0, texture coordinates: 0, faces: 3

o obj527
v 17.42664909 25 4.75959015
v 16.74093246 25 5.03786135
v 17.19761848 25 4.69222164
v 17.31213379 25 5.20587778
v 17.19761848 25 5.65216494
usemtl mat9
f 2309 2310 2311
f 2310 2309 2312
f 2310 2312 2313
# Vertices: 5, normals: 0, texture coordinates: 0, faces: 3

o obj528
v 18.49824715 25 3.8459754
v 17.27948952 25 2
v 17.51883316 25 1.18630874
v 17 25 2.95017314
v 17 25 3
v 16.98534393 25 3
v 16.69119835 25 4
v 19.00572395 25 5.22406816
v 18.69067764 25 5.1313982
v 17.19761848 25 4.69222164
v 16.54412651 25 4.5
v 17.42664909 25 4.75959015
usemtl mat10
f 2314 2315 2316
f 2315 2314 2317
f 2317 2314 2318
f 2318 2314 2319
f 2319 2314 2320
f 2320 2314 2321
f 2320 2321 2322
f 2320 2322 2323
f 2320 2323 2324
f 2323 2322 2325
# Vertices: 12, normals: 0, texture coordinates: 0, faces: 10

o obj529
v 20.07888031 25 4
v 18.49824715 25 3.8459754
v 18.69067764 25 3.28883839
v 19.00572395 25 5.22406816
v 19.78473473 25 5
v 19.66204071 25 5.41711998
usemtl mat11
f 2326 2327 2328
f 2327 2326 2329
f 2329 2326 2330
f 2329 2330 2331
# Vertices: 6, normals: 0, texture coordinates: 0, faces: 4

o obj530
v 17.19761848 25 4.69222164
v 16.39705276 25 5
v 16.54412651 25 4.5
v 16.74093246 25 5.03786135
v 16.28424835 25 5.38350153
usemtl mat12
f 2332 2333 2334
f 2333 2332 2335
f 2333 2335 2336
# Vertices: 5, normals: 0, texture coordinates: 0, faces: 3

o obj531
v 18.06230545 25 5.53783989
v 17.19761848 25 5.65216494
v 17.31213379 25 5.20587778
v 18 25 5.88818169
usemtl mat13
f 2337 2338 2339
f 2338 2337 2340
# Vertices: 4, normals: 0, texture coordinates: 0, faces: 2

o obj532
v 16.74093246 25 5.03786135
v 17 25 5.59403658
v 16.28424835 25 5.38350153
v 17.19761848 25 5.65216494
usemtl mat14
f 2341 2342 2343
f 2342 2341 2344
# Vertices: 4, normals: 0, texture coordinates: 0, faces: 2

o obj533
v 19.00572395 25 5.22406816
v 18.58898926 25 5.77090502
v 18.69067764 25 5.1313982
v 19.66204071 25 5.41711998
v 19.49058914 25 6
v 19.44637489 25 6.15031052
usemtl mat14
f 2345 2346 2347
f 2346 2345 2348
f 2346 2348 2349
f 2346 2349 2350
# Vertices: 6, normals: 0, texture coordinates: 0, faces: 4

o obj534
v 18.69067764 25 5.1313982
v 17.31213379 25 5.20587778
v 17.42664909 25 4.75959015
v 18.58898926 25 5.77090502
v 18.06230545 25 5.53783989
usemtl mat15
f 2351 2352 2353
f 2352 2351 2354
f 2352 2354 2355
# Vertices: 5, normals: 0, texture coordinates: 0, faces: 3

o obj535
v 18.58898926 25 5.77090502
v 18 25 5.88818169
v 18.06230545 25 5.53783989
v 19.44637489 25 6.15031052
v 18.38014603 25 6
v 19 25 6.18232727
v 19.40216255 25 6.30062151
usemtl mat16
f 2356 2357 2358
f 2357 2356 2359
f 2357 2359 2360
f 2360 2359 2361
f 2361 2359 2362
# Vertices: 7, normals: 0, texture coordinates: 0, faces: 5

o obj536
v 18 25 1.32784188
v 18.49824715 25 3.8459754
v 17.51883316 25 1.18630874
v 19.2418251 25 1.69311917
v 18.69067764 25 3.28883839
usemtl mat17
f 2363 2364 2365
f 2364 2363 2366
f 2364 2366 2367
# Vertices: 5, normals: 0, texture coordinates: 0, faces: 3

o obj537
v 20 25 1.91613257
v 18.69067764 25 3.28883839
v 19.2418251 25 1.69311917
v 20.28512192 25 2
v 20.63674736 25 2.10342884
v 20.37302399 25 3
v 20.07888031 25 4
usemtl mat18
f 2368 2369 2370
f 2369 2368 2371
f 2369 2371 2372
f 2369 2372 2373
f 2369 2373 2374
# Vertices: 7, normals: 0, texture coordinates: 0, faces: 5

o obj538
v 46.5 23 1.5
v 40.5 25 1.5
v 40.5 23 1.5
v 41 25 1.5
v 42 25 1.5
v 43 25 1.5
v 44 25 1.5
v 45 25 1.5
v 46 25 1.5
v 46.5 25 1.5
usemtl mat19
f 2375 2376 2377
f 2376 2375 2378
f 2378 2375 2379
f 2379 2375 2380
f 2380 2375 2381
f 2381 2375 2382
f 2382 2375 2383
f 2383 2375 2384
# Vertices: 10, normals: 0, texture coordinates: 0, faces: 8

o obj539
v 42 25 1
v 41.5 24.5 1
v 41 25 1
v 45.5 24.5 1
v 43 25 1
v 44 25 1
v 45 25 1
v 46 25 1
v 45.5 23.5 1
v 40.5 23 1
v 40.5 25 1
v 41.5 23.5 1
v 46.5 23 1
v 46.5 25 1
usemtl mat7
f 2385 2386 2387
f 2386 2385 2388
f 2388 2385 2389
f 2388 2389 2390
f 2388 2390 2391
f 2388 2391 2392
f 2388 2392 2393
f 2387 2394 2395
f 2394 2387 2396
f 2394 2396 2397
f 2396 2387 2386
f 2397 2396 2393
f 2397 2393 2392
f 2397 2392 2398
# Vertices: 14, normals: 0, texture coordinates: 0, faces: 14

o obj540
v 45 25 1.5
v 46 25 1
v 45 25 1
v 46 25 1.5
usemtl mat19
f 2399 2400 2401
f 2400 2399 2402
# Vertices: 4, normals: 0, texture coordinates: 0, faces: 2

o obj541
v 40.5 25 1.5
v 40.5 23 1
v 40.5 23 1.5
v 40.5 25 1
usemtl mat19
f 2403 2404 2405
f 2404 2403 2406
# Vertices: 4, normals: 0, texture coordinates: 0, faces: 2

o obj542
v 46.5 23 1.5
v 40.5 23 1
v 46.5 23 1
v 40.5 23 1.5
usemtl mat19
f 2407 2408 2409
f 2408 2407 2410
# Vertices: 4, normals: 0, texture coordinates: 0, faces: 2

o obj543
v 46.5 25 1
v 46.5 23 1.5
v 46.5 23 1
v 46.5 25 1.5
usemtl mat19
f 2411 2412 2413
f 2412 2411 2414
# Vertices: 4, normals: 0, texture coordinates: 0, faces: 2

o obj544
v 45.5 23.5 0
v 41.5 24.5 0
v 41.5 23.5 0
v 45.5 24.5 0
usemtl mat4
f 2415 2416 2417
f 2416 2415 2418
# Vertices: 4, normals: 0, texture coordinates: 0, faces: 2

o obj545
v 41.5 24.5 1
v 41.5 23.5 0
v 41.5 23.5 1
v 41.5 24.5 0
usemtl mat20
f 2419 2420 2421
f 2420 2419 2422
# Vertices: 4, normals: 0, texture coordinates: 0, faces: 2

o obj546
v 41.5 24.5 1
v 45.5 24.5 0
v 41.5 24.5 0
v 45.5 24.5 1
usemtl mat20
f 2423 2424 2425
f 2424 2423 2426
# Vertices: 4, normals: 0, texture coordinates: 0, faces: 2

o obj547
v 45.5 24.5 0
v 45.5 23.5 1
v 45.5 23.5 0
v 45.5 24.5 1
usemtl mat20
f 2427 2428 2429
f 2428 2427 2430
# Vertices: 4, normals: 0, texture coordinates: 0, faces: 2

o obj548
v 45.5 23.5 1
v 41.5 23.5 0
v 45.5 23.5 0
v 41.5 23.5 1
usemtl mat20
f 2431 2432 2433
f 2432 2431 2434
# Vertices: 4, normals: 0, texture coordinates: 0, faces: 2

o obj549
v 62.5 25 1.5
v 62.5 23 1
v 62.5 23 1.5
v 62.5 25 1
usemtl mat19
f 2435 2436 2437
f 2436 2435 2438
# Vertices: 4, normals: 0, texture coordinates: 0, faces: 2

o obj550
v 67.5 23.5 0
v 63.5 24.5 0
v 63.5 23.5 0
v 67.5 24.5 0
usemtl mat4
f 2439 2440 2441
f 2440 2439 2442
# Vertices: 4, normals: 0, texture coordinates: 0, faces: 2

o obj551
v 68.5 23 1.5
v 62.5 23 1
v 68.5 23 1
v 62.5 23 1.5
usemtl mat19
f 2443 2444 2445
f 2444 2443 2446
# Vertices: 4, normals: 0, texture coordinates: 0, faces: 2

o obj552
v 68.5 23 1.5
v 62.5 25 1.5
v 62.5 23 1.5
v 63 25 1.5
v 64 25 1.5
v 65 25 1.5
v 66 25 1.5
v 67 25 1.5
v 68 25 1.5
v 68.5 25 1.5
usemtl mat19
f 2447 2448 2449
f 2448 2447 2450
f 2450 2447 2451
f 2451 2447 2452
f 2452 2447 2453
f 2453 2447 2454
f 2454 2447 2455
f 2455 2447 2456
# Vertices: 10, normals: 0, texture coordinates: 0, faces: 8

o obj553
v 66 25 1.5
v 67 25 1
v 66 25 1
v 67 25 1.5
usemtl mat19
f 2457 2458 2459
f 2458 2457 2460
# Vertices: 4, normals: 0, texture coordinates: 0, faces: 2

o obj554
v 67.5 24.5 0
v 67.5 23.5 1
v 67.5 23.5 0
v 67.5 24.5 1
usemtl mat20
f 2461 2462 2463
f 2462 2461 2464
# Vertices: 4, normals: 0, texture coordinates: 0, faces: 2

o obj555
v 64 25 1
v 63.5 24.5 1
v 63 25 1
v 67.5 24.5 1
v 65 25 1
v 66 25 1
v 67 25 1
v 68 25 1
v 67.5 23.5 1
v 62.5 23 1
v 62.5 25 1
v 63.5 23.5 1
v 68.5 23 1
v 68.5 25 1
usemtl mat7
f 2465 2466 2467
f 2466 2465 2468
f 2468 2465 2469
f 2468 2469 2470
f 2468 2470 2471
f 2468 2471 2472
f 2468 2472 2473
f 2467 2474 2475
f 2474 2467 2476
f 2474 2476 2477
f 2476 2467 2466
f 2477 2476 2473
f 2477 2473 2472
f 2477 2472 2478
# Vertices: 14, normals: 0, texture coordinates: 0, faces: 14

o obj556
v 63.5 24.5 1
v 67.5 24.5 0
v 63.5 24.5 0
v 67.5 24.5 1
usemtl mat20
f 2479 2480 2481
f 2480 2479 2482
# Vertices: 4, normals: 0, texture coordinates: 0, faces: 2

o obj557
v 67.5 23.5 1
v 63.5 23.5 0
v 67.5 23.5 0
v 63.5 23.5 1
usemtl mat20
f 2483 2484 2485
f 2484 2483 2486
# Vertices: 4, normals: 0, texture coordinates: 0, faces: 2

o obj558
v 63.5 24.5 1
v 63.5 23.5 0
v 63.5 23.5 1
v 63.5 24.5 0
usemtl mat20
f 2487 2488 2489
f 2488 2487 2490
# Vertices: 4, normals: 0, texture coordinates: 0, faces: 2

o obj559
v 68.5 25 1
v 68.5 23 1.5
v 68.5 23 1
v 68.5 25 1.5
usemtl mat19
f 2491 2492 2493
f 2492 2491 2494
# Vertices: 4, normals: 0, texture coordinates: 0, faces: 2

o obj560
v 65 25 1.5
v 66 25 1
v 65 25 1
v 66 25 1.5
usemtl mat0
f 2495 2496 2497
f 2496 2495 2498
# Vertices: 4, normals: 0, texture coordinates: 0, faces: 2

o obj561
v 67 25 1.5
v 68 25 1
v 67 25 1
v 68 25 1.5
usemtl mat0
f 2499 2500 2501
f 2500 2499 2502
# Vertices: 4, normals: 0, texture coordinates: 0, faces: 2

o obj562
v 69 25 2
v 68.5 25 1
v 69 25 1
v 68.5 25 1.5
v 68 25 1.5
v 68 25 2
usemtl mat6
f 2503 2504 2505
f 2504 2503 2506
f 2506 2503 2507
f 2507 2503 2508
# Vertices: 6, normals: 0, texture coordinates: 0, faces: 4

o obj563
v 62.5 25 1.5
v 63 25 1
v 62.5 25 1
v 63 25 1.5
usemtl mat6
f 2509 2510 2511
f 2510 2509 2512
# Vertices: 4, normals: 0, texture coordinates: 0, faces: 2

o obj564
v 63 25 1
v 64 25 1.5
v 64 25 1
v 63 25 1.5
usemtl mat0
f 2513 2514 2515
f 2514 2513 2516
# Vertices: 4, normals: 0, texture coordinates: 0, faces: 2

o obj565
v 64 25 1.5
v 65 25 1
v 64 25 1
v 65 25 1.5
usemtl mat6
f 2517 2518 2519
f 2518 2517 2520
# Vertices: 4, normals: 0, texture coordinates: 0, faces: 2

o obj566
v 46 25 1.5
v 46.5 25 1
v 46 25 1
v 46.5 25 1.5
usemtl mat6
f 2521 2522 2523
f 2522 2521 2524
# Vertices: 4, normals: 0, texture coordinates: 0, faces: 2

o obj567
v 41 25 1.5
v 42 25 1
v 41 25 1
v 42 25 1.5
usemtl mat0
f 2525 2526 2527
f 2526 2525 2528
# Vertices: 4, normals: 0, texture coordinates: 0, faces: 2

o obj568
v 42 25 1.5
v 43 25 1
v 42 25 1
v 43 25 1.5
usemtl mat6
f 2529 2530 2531
f 2530 2529 2532
# Vertices: 4, normals: 0, texture coordinates: 0, faces: 2

o obj569
v 43 25 1.5
v 44 25 1
v 43 25 1
v 44 25 1.5
usemtl mat0
f 2533 2534 2535
f 2534 2533 2536
# Vertices: 4, normals: 0, texture coordinates: 0, faces: 2

o obj570
v 44 25 1.5
v 45 25 1
v 44 25 1
v 45 25 1.5
usemtl mat6
f 2537 2538 2539
f 2538 2537 2540
# Vertices: 4, normals: 0, texture coordinates: 0, faces: 2

o obj571
v 40.5 25 1
v 41 25 1.5
v 41 25 1
v 40.5 25 1.5
usemtl mat6
f 2541 2542 2543
f 2542 2541 2544
# Vertices: 4, normals: 0, texture coordinates: 0, faces: 2

