# File generated by ImageToStl.com - Free Image and 3D model conversion tools

mtllib train.mtl

o obj1
v 31 -0 6
v 16 4 6
v 16 -0 6
v 31 4 6
usemtl mat0
f 1 2 3
f 2 1 4
# Vertices: 4, normals: 0, texture coordinates: 0, faces: 2

o obj2
v 16 4 1
v 16 -0 0
v 16 -0 1
v 16 4 0
usemtl mat1
f 5 6 7
f 6 5 8
# Vertices: 4, normals: 0, texture coordinates: 0, faces: 2

o obj3
v 31 -0 1
v 16 -0 0
v 31 -0 0
v 16 -0 1
usemtl mat1
f 9 10 11
f 10 9 12
# Vertices: 4, normals: 0, texture coordinates: 0, faces: 2

o obj4
v 16 4 1
v 31 4 0
v 16 4 0
v 31 4 1
usemtl mat1
f 13 14 15
f 14 13 16
# Vertices: 4, normals: 0, texture coordinates: 0, faces: 2

o obj5
v 27.5 -0 2.5
v 27.5 -0 3
v 27.5 -0 2.75
v 27.5 -0 3.25
v 27.5 0.5 2
v 27.5 -0 2
v 27.5 0.5 5
v 27.5 -0 5
usemtl mat2
f 17 18 19
f 18 17 20
f 21 17 22
f 20 23 24
f 23 20 17
f 23 17 21
# Vertices: 8, normals: 0, texture coordinates: 0, faces: 6

o obj6
v 25 4 5
v 25 3.5 2
v 25 3.5 5
v 25 4 3.25
v 25 4 2
v 25 4 3
v 25 4 2.75
v 25 4 2.5
usemtl mat2
f 25 26 27
f 26 25 28
f 28 29 26
f 29 28 30
f 29 30 31
f 29 31 32
# Vertices: 8, normals: 0, texture coordinates: 0, faces: 6

o obj7
v 22 0.5 2
v 22 -0 2.5
v 22 -0 2
v 22 -0 3.25
v 22 0.5 5
v 22 -0 5
v 22 -0 3
v 22 -0 2.75
usemtl mat2
f 33 34 35
f 34 33 36
f 36 37 38
f 37 36 33
f 34 39 40
f 39 34 36
# Vertices: 8, normals: 0, texture coordinates: 0, faces: 6

o obj8
v 19.5 4 5
v 19.5 3.5 2
v 19.5 3.5 5
v 19.5 4 3.25
v 19.5 4 2
v 19.5 4 3
v 19.5 4 2.75
v 19.5 4 2.5
usemtl mat2
f 41 42 43
f 42 41 44
f 44 45 42
f 45 44 46
f 45 46 47
f 45 47 48
# Vertices: 8, normals: 0, texture coordinates: 0, faces: 6

o obj9
v 16.5 0.5 2
v 16.5 -0 2.5
v 16.5 -0 2
v 16.5 -0 2.75
v 16.5 -0 3
v 16.5 -0 3.25
v 16.5 0.5 5
v 16.5 -0 5
usemtl mat2
f 49 50 51
f 50 49 52
f 52 49 53
f 53 49 54
f 54 55 56
f 55 54 49
# Vertices: 8, normals: 0, texture coordinates: 0, faces: 6

o obj10
v 22 4 2
v 22 3.5 5
v 22 3.5 2
v 22 4 3.25
v 22 4 3
v 22 4 2.75
v 22 4 2.5
v 22 4 5
usemtl mat2
f 57 58 59
f 58 57 60
f 60 57 61
f 61 57 62
f 62 57 63
f 64 58 60
# Vertices: 8, normals: 0, texture coordinates: 0, faces: 6

o obj11
v 25 -0 3
v 25 -0 2.5
v 25 -0 2.75
v 25 -0 3.25
v 25 0.5 5
v 25 -0 5
v 25 0.5 2
v 25 -0 2
usemtl mat2
f 65 66 67
f 66 65 68
f 69 68 70
f 66 71 72
f 71 66 68
f 71 68 69
# Vertices: 8, normals: 0, texture coordinates: 0, faces: 6

o obj12
v 25 0.5 5
v 27.5 0.5 2
v 25 0.5 2
v 27.5 0.5 5
usemtl mat3
f 73 74 75
f 74 73 76
# Vertices: 4, normals: 0, texture coordinates: 0, faces: 2

o obj13
v 27.5 3.5 5
v 25 3.5 2
v 27.5 3.5 2
v 25 3.5 5
usemtl mat3
f 77 78 79
f 78 77 80
# Vertices: 4, normals: 0, texture coordinates: 0, faces: 2

o obj14
v 27.5 4 2
v 27.5 3.5 5
v 27.5 3.5 2
v 27.5 4 3.25
v 27.5 4 3
v 27.5 4 2.75
v 27.5 4 2.5
v 27.5 4 5
usemtl mat2
f 81 82 83
f 82 81 84
f 84 81 85
f 85 81 86
f 86 81 87
f 88 82 84
# Vertices: 8, normals: 0, texture coordinates: 0, faces: 6

o obj15
v 22 3.5 5
v 19.5 3.5 2
v 22 3.5 2
v 19.5 3.5 5
usemtl mat3
f 89 90 91
f 90 89 92
# Vertices: 4, normals: 0, texture coordinates: 0, faces: 2

o obj16
v 19.5 0.5 5
v 22 0.5 2
v 19.5 0.5 2
v 22 0.5 5
usemtl mat3
f 93 94 95
f 94 93 96
# Vertices: 4, normals: 0, texture coordinates: 0, faces: 2

o obj17
v 19.5 -0 3
v 19.5 -0 2.5
v 19.5 -0 2.75
v 19.5 0.5 5
v 19.5 -0 3.25
v 19.5 -0 5
v 19.5 0.5 2
v 19.5 -0 2
usemtl mat2
f 97 98 99
f 100 101 102
f 98 103 104
f 103 98 97
f 103 97 101
f 103 101 100
# Vertices: 8, normals: 0, texture coordinates: 0, faces: 6

o obj18
v 30.5 0.5 5
v 30.5 -0 3.25
v 30.5 -0 5
v 30.5 -0 2.5
v 30.5 0.5 2
v 30.5 -0 2
v 30.5 -0 3
v 30.5 -0 2.75
usemtl mat2
f 105 106 107
f 106 105 108
f 108 109 110
f 109 108 105
f 111 108 112
f 108 111 106
# Vertices: 8, normals: 0, texture coordinates: 0, faces: 6

o obj19
v 30.5 4 5
v 30.5 3.5 2
v 30.5 3.5 5
v 30.5 4 3.25
v 30.5 4 2
v 30.5 4 3
v 30.5 4 2.75
v 30.5 4 2.5
usemtl mat2
f 113 114 115
f 114 113 116
f 116 117 114
f 117 116 118
f 117 118 119
f 117 119 120
# Vertices: 8, normals: 0, texture coordinates: 0, faces: 6

o obj20
v 33 3.5 5
v 30.5 3.5 2
v 33 3.5 2
v 30.5 3.5 5
usemtl mat3
f 121 122 123
f 122 121 124
# Vertices: 4, normals: 0, texture coordinates: 0, faces: 2

o obj21
v 30.5 0.5 5
v 33 0.5 2
v 30.5 0.5 2
v 33 0.5 5
usemtl mat3
f 125 126 127
f 126 125 128
# Vertices: 4, normals: 0, texture coordinates: 0, faces: 2

o obj22
v 31 4 0
v 31 -0 1
v 31 -0 0
v 31 4 1
usemtl mat1
f 129 130 131
f 130 129 132
# Vertices: 4, normals: 0, texture coordinates: 0, faces: 2

o obj23
v 16.5 4 2
v 16.5 3.5 5
v 16.5 3.5 2
v 16.5 4 3.25
v 16.5 4 3
v 16.5 4 2.75
v 16.5 4 2.5
v 16.5 4 5
usemtl mat2
f 133 134 135
f 134 133 136
f 136 133 137
f 137 133 138
f 138 133 139
f 140 134 136
# Vertices: 8, normals: 0, texture coordinates: 0, faces: 6

o obj24
v 16.5 3.5 5
v 14 3.5 2
v 16.5 3.5 2
v 14 3.5 5
usemtl mat3
f 141 142 143
f 142 141 144
# Vertices: 4, normals: 0, texture coordinates: 0, faces: 2

o obj25
v 14 0.5 5
v 16.5 0.5 2
v 14 0.5 2
v 16.5 0.5 5
usemtl mat3
f 145 146 147
f 146 145 148
# Vertices: 4, normals: 0, texture coordinates: 0, faces: 2

o obj26
v 31 -0 6
v 30.5 -0 3.25
v 31 -0 3.25
v 30.5 -0 5
v 27.5 -0 5
v 25 -0 5
v 22 -0 5
v 19.5 -0 5
v 16.5 -0 5
v 16 -0 3.25
v 16.5 -0 3.25
v 16 -0 6
v 19.5 -0 3.25
v 22 -0 3.25
v 25 -0 3.25
v 27.5 -0 3.25
usemtl mat3
f 149 150 151
f 150 149 152
f 152 149 153
f 153 149 154
f 154 149 155
f 155 149 156
f 156 149 157
f 157 158 159
f 158 157 160
f 160 157 149
f 155 161 162
f 161 155 156
f 153 163 164
f 163 153 154
# Vertices: 16, normals: 0, texture coordinates: 0, faces: 14

o obj27
v 44 4 1
v 47 3 0
v 44 4 0
v 47 3 1
usemtl mat1
f 165 166 167
f 166 165 168
# Vertices: 4, normals: 0, texture coordinates: 0, faces: 2

o obj28
v 44 4 3.25
v 47 3 4
v 47 3 3.25
v 44 4 6
usemtl mat3
f 169 170 171
f 170 169 172
# Vertices: 4, normals: 0, texture coordinates: 0, faces: 2

o obj29
v 47 1 1
v 47 3 2.5
v 47 1 2.5
v 47 3 1
usemtl mat0
f 173 174 175
f 174 173 176
# Vertices: 4, normals: 0, texture coordinates: 0, faces: 2

o obj30
v 33 4 2
v 33 3.5 5
v 33 3.5 2
v 33 4 3.25
v 33 4 3
v 33 4 2.75
v 33 4 2.5
v 33 4 5
usemtl mat2
f 177 178 179
f 178 177 180
f 180 177 181
f 181 177 182
f 182 177 183
f 184 178 180
# Vertices: 8, normals: 0, texture coordinates: 0, faces: 6

o obj31
v 44 -0 6
v 43 -0 3.25
v 44 -0 3.25
v 43 -0 5
v 40 -0 5
v 36 -0 5
v 33 -0 5
v 32 -0 3.25
v 33 -0 3.25
v 32 -0 6
v 36 -0 3.25
v 40 -0 3.25
usemtl mat3
f 185 186 187
f 186 185 188
f 188 185 189
f 189 185 190
f 190 185 191
f 191 192 193
f 192 191 194
f 194 191 185
f 189 195 196
f 195 189 190
# Vertices: 12, normals: 0, texture coordinates: 0, faces: 10

o obj32
v 36 0.5 5
v 40 0.5 2
v 36 0.5 2
v 40 0.5 5
usemtl mat3
f 197 198 199
f 198 197 200
# Vertices: 4, normals: 0, texture coordinates: 0, faces: 2

o obj33
v 40 3.5 5
v 36 3.5 2
v 40 3.5 2
v 36 3.5 5
usemtl mat3
f 201 202 203
f 202 201 204
# Vertices: 4, normals: 0, texture coordinates: 0, faces: 2

o obj34
v 32 4 1
v 32 -0 0
v 32 -0 1
v 32 4 0
usemtl mat3
f 205 206 207
f 206 205 208
# Vertices: 4, normals: 0, texture coordinates: 0, faces: 2

o obj35
v 47 1 4
v 44 -0 3.25
v 47 1 3.25
v 44 -0 6
usemtl mat3
f 209 210 211
f 210 209 212
# Vertices: 4, normals: 0, texture coordinates: 0, faces: 2

o obj36
v 43 -0 2
v 40 0.5 2
v 40 -0 2
v 40 3.5 2
v 40 4 2
v 43 4 2
v 36 3.5 2
v 36 0.5 2
v 36 -0 2
v 33 0.5 2
v 33 -0 2
v 33 3.5 2
v 33 4 2
v 36 4 2
v 30.5 3.5 2
v 30.5 0.5 2
v 30.5 -0 2
v 27.5 0.5 2
v 27.5 -0 2
v 27.5 3.5 2
v 27.5 4 2
v 30.5 4 2
v 25 3.5 2
v 25 0.5 2
v 25 -0 2
v 22 0.5 2
v 22 -0 2
v 22 3.5 2
v 22 4 2
v 25 4 2
v 19.5 3.5 2
v 19.5 0.5 2
v 19.5 -0 2
v 16.5 0.5 2
v 16.5 -0 2
v 16.5 3.5 2
v 16.5 4 2
v 19.5 4 2
v 14 3.5 2
v 14 0.5 2
v 7 0 2
v 4 4 2
v 4 0 2
v 7 3.5 2
v 7 0.5 2
v 11 3.5 2
v 11 0.5 2
v 11 0 2
v 11 4 2
v 14 4 2
v 14 0 2
v 7 4 2
usemtl mat4
f 213 214 215
f 214 213 216
f 216 213 217
f 217 213 218
f 214 219 220
f 219 214 216
f 221 222 223
f 222 221 224
f 224 221 225
f 225 221 226
f 226 221 220
f 226 220 219
f 222 227 228
f 227 222 224
f 229 230 231
f 230 229 232
f 232 229 233
f 233 229 234
f 234 229 228
f 234 228 227
f 230 235 236
f 235 230 232
f 237 238 239
f 238 237 240
f 240 237 241
f 241 237 242
f 242 237 236
f 242 236 235
f 238 243 244
f 243 238 240
f 245 246 247
f 246 245 248
f 248 245 249
f 249 245 250
f 250 245 244
f 250 244 243
f 246 251 252
f 251 246 248
f 253 254 255
f 254 253 256
f 256 253 257
f 256 257 258
f 258 257 259
f 258 259 260
f 258 260 261
f 261 260 262
f 262 260 263
f 262 263 252
f 262 252 251
f 264 254 256
# Vertices: 52, normals: 0, texture coordinates: 0, faces: 50

o obj37
v 32 -0 3
v 32 -0 2.5
v 32 -0 2.75
v 32 -0 3.25
v 32 -0 6
v 32 0.25 5.25
v 32 3 6
v 32 3.75 5.25
v 32 4 6
v 32 3.75 1.75
v 32 4 3.25
v 32 -0 1
v 32 0.25 1.75
v 32 4 1
v 32 4 3
v 32 4 2.75
v 32 4 2.5
usemtl mat3
f 265 266 267
f 266 265 268
f 266 268 269
f 266 269 270
f 270 269 271
f 270 271 272
f 272 271 273
f 272 273 274
f 274 273 275
f 276 277 278
f 277 276 266
f 277 266 270
f 278 277 274
f 278 274 275
f 278 275 279
f 278 279 280
f 278 280 281
# Vertices: 17, normals: 0, texture coordinates: 0, faces: 17

o obj38
v 32 4 1
v 44 4 0
v 32 4 0
v 44 4 1
usemtl mat1
f 282 283 284
f 283 282 285
# Vertices: 4, normals: 0, texture coordinates: 0, faces: 2

o obj39
v 47 1 4
v 44 4 6
v 44 -0 6
v 47 3 4
usemtl mat0
f 286 287 288
f 287 286 289
# Vertices: 4, normals: 0, texture coordinates: 0, faces: 2

o obj40
v 47 3 0
v 47 1 1
v 47 1 0
v 47 3 1
usemtl mat1
f 290 291 292
f 291 290 293
# Vertices: 4, normals: 0, texture coordinates: 0, faces: 2

o obj41
v 44 -0 1
v 32 -0 0
v 44 -0 0
v 32 -0 1
usemtl mat1
f 294 295 296
f 295 294 297
# Vertices: 4, normals: 0, texture coordinates: 0, faces: 2

o obj42
v 47 1 1
v 44 -0 0
v 47 1 0
v 44 -0 1
usemtl mat1
f 298 299 300
f 299 298 301
# Vertices: 4, normals: 0, texture coordinates: 0, faces: 2

o obj43
v 36 -0 3
v 36 -0 2.5
v 36 -0 2.75
v 36 -0 3.25
v 36 -0 5
v 36 0.5 5
v 36 0.5 2
v 36 -0 2
usemtl mat2
f 302 303 304
f 303 302 305
f 303 305 306
f 303 306 307
f 303 308 309
f 308 303 307
# Vertices: 8, normals: 0, texture coordinates: 0, faces: 6

o obj44
v 33 0.5 2
v 33 -0 2.5
v 33 -0 2
v 33 -0 3
v 33 -0 2.75
v 33 -0 3.25
v 33 -0 5
v 33 0.5 5
usemtl mat2
f 310 311 312
f 311 313 314
f 313 311 315
f 315 311 316
f 316 311 317
f 317 311 310
# Vertices: 8, normals: 0, texture coordinates: 0, faces: 6

o obj45
v 44 -0 6
v 32 3 6
v 32 -0 6
v 32 4 6
v 44 4 6
usemtl mat0
f 318 319 320
f 319 318 321
f 321 318 322
# Vertices: 5, normals: 0, texture coordinates: 0, faces: 3

o obj46
v 43 -0 3
v 43 -0 2.5
v 43 -0 2.75
v 43 -0 3.25
v 43 -0 5
v 43 4 5
v 43 4 2
v 43 -0 2
v 43 4 3.25
v 43 4 2.5
v 43 4 3
v 43 4 2.75
usemtl mat3
f 323 324 325
f 324 323 326
f 324 326 327
f 324 327 328
f 324 329 330
f 329 324 328
f 329 328 331
f 329 331 332
f 332 331 333
f 332 333 334
# Vertices: 12, normals: 0, texture coordinates: 0, faces: 10

o obj47
v 40 0.5 2
v 40 -0 2.5
v 40 -0 2
v 40 -0 3
v 40 -0 2.75
v 40 -0 3.25
v 40 -0 5
v 40 0.5 5
usemtl mat2
f 335 336 337
f 336 338 339
f 338 336 340
f 340 336 341
f 341 336 342
f 342 336 335
# Vertices: 8, normals: 0, texture coordinates: 0, faces: 6

o obj48
v 36 4 5
v 36 3.5 2
v 36 3.5 5
v 36 4 3.25
v 36 4 2
v 36 4 3
v 36 4 2.75
v 36 4 2.5
usemtl mat2
f 343 344 345
f 344 343 346
f 346 347 344
f 347 346 348
f 347 348 349
f 347 349 350
# Vertices: 8, normals: 0, texture coordinates: 0, faces: 6

o obj49
v 32 4 6
v 33 4 3.25
v 32 4 3.25
v 33 4 5
v 36 4 5
v 40 4 5
v 43 4 5
v 44 4 3.25
v 43 4 3.25
v 44 4 6
v 40 4 3.25
v 36 4 3.25
usemtl mat3
f 351 352 353
f 352 351 354
f 354 351 355
f 355 351 356
f 356 351 357
f 357 358 359
f 358 357 360
f 360 357 351
f 355 361 362
f 361 355 356
# Vertices: 12, normals: 0, texture coordinates: 0, faces: 10

o obj50
v 40 4 2
v 40 3.5 5
v 40 3.5 2
v 40 4 3.25
v 40 4 3
v 40 4 2.5
v 40 4 2.75
v 40 4 5
usemtl mat2
f 363 364 365
f 364 363 366
f 366 363 367
f 367 363 368
f 367 368 369
f 370 364 366
# Vertices: 8, normals: 0, texture coordinates: 0, faces: 6

o obj51
v 3 0 1
v 0 1 0
v 3 0 0
v 0 1 1
usemtl mat1
f 371 372 373
f 372 371 374
# Vertices: 4, normals: 0, texture coordinates: 0, faces: 2

o obj52
v 3 0 2.5
v 0 1 1
v 3 0 1
v 0 1 2.5
usemtl mat0
f 375 376 377
f 376 375 378
# Vertices: 4, normals: 0, texture coordinates: 0, faces: 2

o obj53
v 0 3 2.75
v 0 1 2.5
v 0 1 2.75
v 0 3 2.5
usemtl mat2
f 379 380 381
f 380 379 382
# Vertices: 4, normals: 0, texture coordinates: 0, faces: 2

o obj54
v 14 0.5 5
v 14 0 3.5
v 14 0 5
v 14 0 3.25
v 14 0 3
v 14 0 2.75
v 14 0 2.5
v 14 0 2
v 14 0.5 2
usemtl mat2
f 383 384 385
f 384 383 386
f 386 383 387
f 387 383 388
f 388 383 389
f 389 383 390
f 390 383 391
# Vertices: 9, normals: 0, texture coordinates: 0, faces: 7

o obj55
v 3 4 6
v 4 4 3.25
v 3 4 3.25
v 4 4 5
v 7 4 5
v 11 4 5
v 14 4 5
v 15 4 3.25
v 14 4 3.25
v 15 4 6
v 11 4 3.25
v 7 4 3.25
usemtl mat3
f 392 393 394
f 393 392 395
f 395 392 396
f 396 392 397
f 397 392 398
f 398 399 400
f 399 398 401
f 401 398 392
f 396 402 403
f 402 396 397
# Vertices: 12, normals: 0, texture coordinates: 0, faces: 10

o obj56
v 11 3.5 5
v 7 3.5 2
v 11 3.5 2
v 7 3.5 5
usemtl mat3
f 404 405 406
f 405 404 407
# Vertices: 4, normals: 0, texture coordinates: 0, faces: 2

o obj57
v 7 0.5 5
v 11 0.5 2
v 7 0.5 2
v 11 0.5 5
usemtl mat3
f 408 409 410
f 409 408 411
# Vertices: 4, normals: 0, texture coordinates: 0, faces: 2

o obj58
v 15 4 0
v 15 -0 1
v 15 -0 0
v 15 4 1
usemtl mat1
f 412 413 414
f 413 412 415
# Vertices: 4, normals: 0, texture coordinates: 0, faces: 2

o obj59
v 0 3 4
v 3 4 3.25
v 0 3 3.25
v 3 4 6
usemtl mat3
f 416 417 418
f 417 416 419
# Vertices: 4, normals: 0, texture coordinates: 0, faces: 2

o obj60
v 15 -0 1
v 15 0.25 1.75
v 15 -0 2.5
v 15 4 1
v 15 -0 2.75
v 15 -0 3
v 15 0 3.25
v 15 3.75 1.75
v 15 3.75 5.25
v 15 4 3.25
v 15 4 3
v 15 4 2.75
v 15 4 2.5
v 15 -0 6
v 15 0.25 5.25
v 15 1 6
v 15 4 6
usemtl mat3
f 420 421 422
f 421 420 423
f 422 421 424
f 424 421 425
f 425 421 426
f 421 423 427
f 427 423 428
f 428 423 429
f 429 423 430
f 430 423 431
f 431 423 432
f 433 434 435
f 434 433 426
f 434 426 421
f 435 434 428
f 435 428 436
f 436 428 429
# Vertices: 17, normals: 0, texture coordinates: 0, faces: 17

o obj61
v 15 -0 1
v 3 0 0
v 15 -0 0
v 3 0 1
usemtl mat1
f 437 438 439
f 438 437 440
# Vertices: 4, normals: 0, texture coordinates: 0, faces: 2

o obj62
v 3 0 6
v 0 3 4
v 0 1 4
v 3 4 6
usemtl mat0
f 441 442 443
f 442 441 444
# Vertices: 4, normals: 0, texture coordinates: 0, faces: 2

o obj63
v 0 3 1
v 0 1 0
v 0 1 1
v 0 3 0
usemtl mat1
f 445 446 447
f 446 445 448
# Vertices: 4, normals: 0, texture coordinates: 0, faces: 2

o obj64
v 3 4 1
v 15 4 0
v 3 4 0
v 15 4 1
usemtl mat1
f 449 450 451
f 450 449 452
# Vertices: 4, normals: 0, texture coordinates: 0, faces: 2

o obj65
v 0 3 1
v 3 4 0
v 0 3 0
v 3 4 1
usemtl mat1
f 453 454 455
f 454 453 456
# Vertices: 4, normals: 0, texture coordinates: 0, faces: 2

o obj66
v 11 4 2
v 11 3.5 5
v 11 3.5 2
v 11 4 3.25
v 11 4 3
v 11 4 2.75
v 11 4 2.5
v 11 4 5
usemtl mat2
f 457 458 459
f 458 457 460
f 460 457 461
f 461 457 462
f 462 457 463
f 464 458 460
# Vertices: 8, normals: 0, texture coordinates: 0, faces: 6

o obj67
v 14 4 5
v 14 3.5 2
v 14 3.5 5
v 14 4 3.25
v 14 4 2
v 14 4 3
v 14 4 2.75
v 14 4 2.5
usemtl mat2
f 465 466 467
f 466 465 468
f 468 469 466
f 469 468 470
f 469 470 471
f 469 471 472
# Vertices: 8, normals: 0, texture coordinates: 0, faces: 6

o obj68
v 15 -0 6
v 3 4 6
v 3 0 6
v 15 4 6
v 15 1 6
usemtl mat0
f 473 474 475
f 474 473 476
f 476 473 477
# Vertices: 5, normals: 0, texture coordinates: 0, faces: 3

o obj69
v 4 4 2
v 4 0 2.5
v 4 0 2
v 4 4 3.25
v 4 4 3
v 4 4 2.75
v 4 4 2.5
v 4 0 3.25
v 4 4 5
v 4 0 5
v 4 0 3
v 4 0 2.75
usemtl mat3
f 478 479 480
f 479 478 481
f 481 478 482
f 482 478 483
f 483 478 484
f 485 486 487
f 486 485 488
f 486 488 489
f 486 489 479
f 486 479 481
# Vertices: 12, normals: 0, texture coordinates: 0, faces: 10

o obj70
v 7 4 5
v 7 3.5 2
v 7 3.5 5
v 7 4 3.25
v 7 4 2
v 7 4 3
v 7 4 2.75
v 7 4 2.5
usemtl mat2
f 490 491 492
f 491 490 493
f 493 494 491
f 494 493 495
f 494 495 496
f 494 496 497
# Vertices: 8, normals: 0, texture coordinates: 0, faces: 6

o obj71
v 11 0 2.5
v 11 0 3
v 11 0 2.75
v 11 0 2
v 11 0 3.25
v 11 0 5
v 11 0.5 2
v 11 0.5 5
usemtl mat2
f 498 499 500
f 499 498 501
f 499 501 502
f 502 501 503
f 503 501 504
f 503 504 505
# Vertices: 8, normals: 0, texture coordinates: 0, faces: 6

o obj72
v 15 -0 1
v 14 0 2
v 3 0 1
v 15 -0 2.5
v 14 0 2.5
v 11 0 2.5
v 7 0 2
v 11 0 2
v 7 0 2.5
v 4 0 2
v 3 0 2.5
v 4 0 2.5
usemtl mat0
f 506 507 508
f 507 506 509
f 507 509 510
f 511 512 513
f 512 511 514
f 508 515 516
f 515 508 507
f 515 507 513
f 515 513 512
f 516 515 517
# Vertices: 12, normals: 0, texture coordinates: 0, faces: 10

o obj73
v 7 0.5 5
v 7 0 3.25
v 7 0 5
v 7 0 3
v 7 0 2.75
v 7 0 2.5
v 7 0.5 2
v 7 0 2
usemtl mat2
f 518 519 520
f 519 518 521
f 521 518 522
f 522 518 523
f 523 524 525
f 524 523 518
# Vertices: 8, normals: 0, texture coordinates: 0, faces: 6

o obj74
v 16 3.75 1.75
v 15 0.25 1.75
v 15 3.75 1.75
v 16 0.25 1.75
usemtl mat3
f 526 527 528
f 527 526 529
# Vertices: 4, normals: 0, texture coordinates: 0, faces: 2

o obj75
v 15 3.75 5.25
v 16 3.75 1.75
v 15 3.75 1.75
v 16 3.75 5.25
usemtl mat3
f 530 531 532
f 531 530 533
# Vertices: 4, normals: 0, texture coordinates: 0, faces: 2

o obj76
v 16 0.25 5.25
v 15 3.75 5.25
v 15 0.25 5.25
v 16 3.75 5.25
usemtl mat0
f 534 535 536
f 535 534 537
# Vertices: 4, normals: 0, texture coordinates: 0, faces: 2

o obj77
v 16 0.25 5.25
v 15 0.25 1.75
v 16 0.25 1.75
v 15 0.25 5.25
usemtl mat3
f 538 539 540
f 539 538 541
# Vertices: 4, normals: 0, texture coordinates: 0, faces: 2

o obj78
v 16 -0 6
v 16 0.25 5.25
v 16 -0 3.25
v 16 4 6
v 16 3.75 5.25
v 16 3.75 1.75
v 16 4 3.25
v 16 -0 1
v 16 0.25 1.75
v 16 4 1
v 16 -0 2.5
v 16 -0 2.75
v 16 -0 3
v 16 4 3
v 16 4 2.75
v 16 4 2.5
usemtl mat3
f 542 543 544
f 543 542 545
f 543 545 546
f 546 545 547
f 547 545 548
f 549 550 551
f 550 549 552
f 550 552 553
f 550 553 554
f 550 554 544
f 550 544 543
f 551 550 547
f 551 547 548
f 551 548 555
f 551 555 556
f 551 556 557
# Vertices: 16, normals: 0, texture coordinates: 0, faces: 16

o obj79
v 32 3.75 1.75
v 31 0.25 1.75
v 31 3.75 1.75
v 32 0.25 1.75
usemtl mat3
f 558 559 560
f 559 558 561
# Vertices: 4, normals: 0, texture coordinates: 0, faces: 2

o obj80
v 32 0.25 5.25
v 31 0.25 1.75
v 32 0.25 1.75
v 31 0.25 5.25
usemtl mat3
f 562 563 564
f 563 562 565
# Vertices: 4, normals: 0, texture coordinates: 0, faces: 2

o obj81
v 32 0.25 5.25
v 31 3.75 5.25
v 31 0.25 5.25
v 32 3.75 5.25
usemtl mat0
f 566 567 568
f 567 566 569
# Vertices: 4, normals: 0, texture coordinates: 0, faces: 2

o obj82
v 31 3.75 5.25
v 32 3.75 1.75
v 31 3.75 1.75
v 32 3.75 5.25
usemtl mat3
f 570 571 572
f 571 570 573
# Vertices: 4, normals: 0, texture coordinates: 0, faces: 2

o obj83
v 31 -0 2.5
v 31 -0 3
v 31 -0 2.75
v 31 -0 3.25
v 31 -0 1
v 31 0.25 1.75
v 31 4 1
v 31 3.75 1.75
v 31 3.75 5.25
v 31 4 3.25
v 31 4 3
v 31 4 2.75
v 31 4 2.5
v 31 -0 6
v 31 0.25 5.25
v 31 4 6
usemtl mat3
f 574 575 576
f 575 574 577
f 578 579 574
f 579 578 580
f 579 580 581
f 581 580 582
f 582 580 583
f 583 580 584
f 584 580 585
f 585 580 586
f 587 588 589
f 588 587 577
f 588 577 574
f 588 574 579
f 589 588 582
f 589 582 583
# Vertices: 16, normals: 0, texture coordinates: 0, faces: 16

o obj84
v 15 -0 3
v 14 0 2.75
v 15 -0 2.75
v 14 0 3
usemtl mat3
f 590 591 592
f 591 590 593
# Vertices: 4, normals: 0, texture coordinates: 0, faces: 2

o obj85
v 15 0 3.25
v 14 0 3
v 15 -0 3
v 14 0 3.25
usemtl mat2
f 594 595 596
f 595 594 597
# Vertices: 4, normals: 0, texture coordinates: 0, faces: 2

o obj86
v 15 -0 2.75
v 14 0 2.5
v 15 -0 2.5
v 14 0 2.75
usemtl mat2
f 598 599 600
f 599 598 601
# Vertices: 4, normals: 0, texture coordinates: 0, faces: 2

o obj87
v 31 -0 1
v 30.5 -0 2
v 16 -0 1
v 31 -0 2.5
v 30.5 -0 2.5
v 27.5 -0 2.5
v 25 -0 2
v 27.5 -0 2
v 25 -0 2.5
v 22 -0 2.5
v 19.5 -0 2
v 22 -0 2
v 19.5 -0 2.5
v 16.5 -0 2
v 16 -0 2.5
v 16.5 -0 2.5
usemtl mat0
f 602 603 604
f 603 602 605
f 603 605 606
f 607 608 609
f 608 607 610
f 611 612 613
f 612 611 614
f 604 615 616
f 615 604 603
f 615 603 609
f 615 609 608
f 615 608 613
f 615 613 612
f 616 615 617
# Vertices: 16, normals: 0, texture coordinates: 0, faces: 14

o obj88
v 44 -0 1
v 43 -0 2
v 32 -0 1
v 44 -0 2.5
v 43 -0 2.5
v 40 -0 2.5
v 36 -0 2
v 40 -0 2
v 36 -0 2.5
v 33 -0 2
v 32 -0 2.5
v 33 -0 2.5
usemtl mat0
f 618 619 620
f 619 618 621
f 619 621 622
f 623 624 625
f 624 623 626
f 620 627 628
f 627 620 619
f 627 619 625
f 627 625 624
f 628 627 629
# Vertices: 12, normals: 0, texture coordinates: 0, faces: 10

o obj89
v 27.5 -0 2.75
v 25 -0 2.5
v 27.5 -0 2.5
v 25 -0 2.75
usemtl mat2
f 630 631 632
f 631 630 633
# Vertices: 4, normals: 0, texture coordinates: 0, faces: 2

o obj90
v 31 -0 2.75
v 30.5 -0 2.5
v 31 -0 2.5
v 30.5 -0 2.75
usemtl mat2
f 634 635 636
f 635 634 637
# Vertices: 4, normals: 0, texture coordinates: 0, faces: 2

o obj91
v 22 -0 2.75
v 19.5 -0 2.5
v 22 -0 2.5
v 19.5 -0 2.75
usemtl mat2
f 638 639 640
f 639 638 641
# Vertices: 4, normals: 0, texture coordinates: 0, faces: 2

o obj92
v 16.5 -0 2.75
v 16 -0 2.5
v 16.5 -0 2.5
v 16 -0 2.75
usemtl mat2
f 642 643 644
f 643 642 645
# Vertices: 4, normals: 0, texture coordinates: 0, faces: 2

o obj93
v 40 -0 2.75
v 36 -0 2.5
v 40 -0 2.5
v 36 -0 2.75
usemtl mat2
f 646 647 648
f 647 646 649
# Vertices: 4, normals: 0, texture coordinates: 0, faces: 2

o obj94
v 44 -0 2.75
v 43 -0 2.5
v 44 -0 2.5
v 43 -0 2.75
usemtl mat2
f 650 651 652
f 651 650 653
# Vertices: 4, normals: 0, texture coordinates: 0, faces: 2

o obj95
v 33 -0 2.75
v 32 -0 2.5
v 33 -0 2.5
v 32 -0 2.75
usemtl mat2
f 654 655 656
f 655 654 657
# Vertices: 4, normals: 0, texture coordinates: 0, faces: 2

o obj96
v 27.5 -0 3
v 25 -0 2.75
v 27.5 -0 2.75
v 25 -0 3
usemtl mat3
f 658 659 660
f 659 658 661
# Vertices: 4, normals: 0, texture coordinates: 0, faces: 2

o obj97
v 31 -0 3
v 30.5 -0 2.75
v 31 -0 2.75
v 30.5 -0 3
usemtl mat3
f 662 663 664
f 663 662 665
# Vertices: 4, normals: 0, texture coordinates: 0, faces: 2

o obj98
v 22 -0 3
v 19.5 -0 2.75
v 22 -0 2.75
v 19.5 -0 3
usemtl mat3
f 666 667 668
f 667 666 669
# Vertices: 4, normals: 0, texture coordinates: 0, faces: 2

o obj99
v 16.5 -0 3
v 16 -0 2.75
v 16.5 -0 2.75
v 16 -0 3
usemtl mat3
f 670 671 672
f 671 670 673
# Vertices: 4, normals: 0, texture coordinates: 0, faces: 2

o obj100
v 40 -0 3
v 36 -0 2.75
v 40 -0 2.75
v 36 -0 3
usemtl mat3
f 674 675 676
f 675 674 677
# Vertices: 4, normals: 0, texture coordinates: 0, faces: 2

o obj101
v 44 -0 3
v 43 -0 2.75
v 44 -0 2.75
v 43 -0 3
usemtl mat3
f 678 679 680
f 679 678 681
# Vertices: 4, normals: 0, texture coordinates: 0, faces: 2

o obj102
v 33 -0 3
v 32 -0 2.75
v 33 -0 2.75
v 32 -0 3
usemtl mat3
f 682 683 684
f 683 682 685
# Vertices: 4, normals: 0, texture coordinates: 0, faces: 2

o obj103
v 27.5 -0 3.25
v 25 -0 3
v 27.5 -0 3
v 25 -0 3.25
usemtl mat2
f 686 687 688
f 687 686 689
# Vertices: 4, normals: 0, texture coordinates: 0, faces: 2

o obj104
v 31 -0 3.25
v 30.5 -0 3
v 31 -0 3
v 30.5 -0 3.25
usemtl mat2
f 690 691 692
f 691 690 693
# Vertices: 4, normals: 0, texture coordinates: 0, faces: 2

o obj105
v 22 -0 3.25
v 19.5 -0 3
v 22 -0 3
v 19.5 -0 3.25
usemtl mat2
f 694 695 696
f 695 694 697
# Vertices: 4, normals: 0, texture coordinates: 0, faces: 2

o obj106
v 16.5 -0 3.25
v 16 -0 3
v 16.5 -0 3
v 16 -0 3.25
usemtl mat2
f 698 699 700
f 699 698 701
# Vertices: 4, normals: 0, texture coordinates: 0, faces: 2

o obj107
v 40 -0 3.25
v 36 -0 3
v 40 -0 3
v 36 -0 3.25
usemtl mat2
f 702 703 704
f 703 702 705
# Vertices: 4, normals: 0, texture coordinates: 0, faces: 2

o obj108
v 44 -0 3.25
v 43 -0 3
v 44 -0 3
v 43 -0 3.25
usemtl mat2
f 706 707 708
f 707 706 709
# Vertices: 4, normals: 0, texture coordinates: 0, faces: 2

o obj109
v 33 -0 3.25
v 32 -0 3
v 33 -0 3
v 32 -0 3.25
usemtl mat2
f 710 711 712
f 711 710 713
# Vertices: 4, normals: 0, texture coordinates: 0, faces: 2

o obj110
v 16 4 6
v 16.5 4 3.25
v 16 4 3.25
v 16.5 4 5
v 19.5 4 5
v 22 4 5
v 25 4 5
v 27.5 4 5
v 30.5 4 5
v 31 4 3.25
v 30.5 4 3.25
v 31 4 6
v 27.5 4 3.25
v 25 4 3.25
v 22 4 3.25
v 19.5 4 3.25
usemtl mat3
f 714 715 716
f 715 714 717
f 717 714 718
f 718 714 719
f 719 714 720
f 720 714 721
f 721 714 722
f 722 723 724
f 723 722 725
f 725 722 714
f 720 726 727
f 726 720 721
f 718 728 729
f 728 718 719
# Vertices: 16, normals: 0, texture coordinates: 0, faces: 14

o obj111
v 15 -0 6
v 14 0 3.25
v 15 0 3.25
v 14 0 3.5
v 14 0 5
v 11 0 5
v 7 0 5
v 4 0 5
v 3 0 3.25
v 4 0 3.25
v 3 0 6
v 7 0 3.25
v 11 0 3.25
usemtl mat3
f 730 731 732
f 731 730 733
f 733 730 734
f 734 730 735
f 735 730 736
f 736 730 737
f 737 738 739
f 738 737 740
f 740 737 730
f 735 741 742
f 741 735 736
# Vertices: 13, normals: 0, texture coordinates: 0, faces: 11

o obj112
v 4 0 3.25
v 3 0 3
v 4 0 3
v 3 0 3.25
usemtl mat2
f 743 744 745
f 744 743 746
# Vertices: 4, normals: 0, texture coordinates: 0, faces: 2

o obj113
v 11 0 3.25
v 7 0 3
v 11 0 3
v 7 0 3.25
usemtl mat2
f 747 748 749
f 748 747 750
# Vertices: 4, normals: 0, texture coordinates: 0, faces: 2

o obj114
v 4 0 3
v 3 0 2.75
v 4 0 2.75
v 3 0 3
usemtl mat3
f 751 752 753
f 752 751 754
# Vertices: 4, normals: 0, texture coordinates: 0, faces: 2

o obj115
v 11 0 3
v 7 0 2.75
v 11 0 2.75
v 7 0 3
usemtl mat3
f 755 756 757
f 756 755 758
# Vertices: 4, normals: 0, texture coordinates: 0, faces: 2

o obj116
v 4 0 2.75
v 3 0 2.5
v 4 0 2.5
v 3 0 2.75
usemtl mat2
f 759 760 761
f 760 759 762
# Vertices: 4, normals: 0, texture coordinates: 0, faces: 2

o obj117
v 11 0 2.75
v 7 0 2.5
v 11 0 2.5
v 7 0 2.75
usemtl mat2
f 763 764 765
f 764 763 766
# Vertices: 4, normals: 0, texture coordinates: 0, faces: 2

o obj118
v 3 0 2.75
v 0 1 2.5
v 3 0 2.5
v 0 1 2.75
usemtl mat2
f 767 768 769
f 768 767 770
# Vertices: 4, normals: 0, texture coordinates: 0, faces: 2

o obj119
v 3 0 3
v 0 1 2.75
v 3 0 2.75
v -0 1 3
usemtl mat3
f 771 772 773
f 772 771 774
# Vertices: 4, normals: 0, texture coordinates: 0, faces: 2

o obj120
v 3 0 3.25
v -0 1 3
v 3 0 3
v -0 1 3.25
usemtl mat2
f 775 776 777
f 776 775 778
# Vertices: 4, normals: 0, texture coordinates: 0, faces: 2

o obj121
v 3 0 6
v -0 1 3.25
v 3 0 3.25
v 0 1 4
usemtl mat3
f 779 780 781
f 780 779 782
# Vertices: 4, normals: 0, texture coordinates: 0, faces: 2

o obj122
v 44 4 2.75
v 47 3 2.5
v 44 4 2.5
v 47 3 2.75
usemtl mat2
f 783 784 785
f 784 783 786
# Vertices: 4, normals: 0, texture coordinates: 0, faces: 2

o obj123
v 44 4 2.5
v 47 3 1
v 44 4 1
v 47 3 2.5
usemtl mat0
f 787 788 789
f 788 787 790
# Vertices: 4, normals: 0, texture coordinates: 0, faces: 2

o obj124
v 44 4 3
v 47 3 3.25
v 47 3 3
v 44 4 3.25
usemtl mat2
f 791 792 793
f 792 791 794
# Vertices: 4, normals: 0, texture coordinates: 0, faces: 2

o obj125
v 44 4 3
v 47 3 2.75
v 44 4 2.75
v 47 3 3
usemtl mat3
f 795 796 797
f 796 795 798
# Vertices: 4, normals: 0, texture coordinates: 0, faces: 2

o obj126
v 47 1 3.25
v 44 -0 3
v 47 1 3
v 44 -0 3.25
usemtl mat2
f 799 800 801
f 800 799 802
# Vertices: 4, normals: 0, texture coordinates: 0, faces: 2

o obj127
v 47 1 3
v 44 -0 2.75
v 47 1 2.75
v 44 -0 3
usemtl mat3
f 803 804 805
f 804 803 806
# Vertices: 4, normals: 0, texture coordinates: 0, faces: 2

o obj128
v 47 1 2.5
v 44 -0 2.75
v 44 -0 2.5
v 47 1 2.75
usemtl mat2
f 807 808 809
f 808 807 810
# Vertices: 4, normals: 0, texture coordinates: 0, faces: 2

o obj129
v 47 1 2.5
v 44 -0 1
v 47 1 1
v 44 -0 2.5
usemtl mat0
f 811 812 813
f 812 811 814
# Vertices: 4, normals: 0, texture coordinates: 0, faces: 2

o obj130
v 47 3 2.75
v 47 1 3
v 47 1 2.75
v 47 3 3
usemtl mat3
f 815 816 817
f 816 815 818
# Vertices: 4, normals: 0, texture coordinates: 0, faces: 2

o obj131
v 47 1 2.5
v 47 3 2.75
v 47 1 2.75
v 47 3 2.5
usemtl mat2
f 819 820 821
f 820 819 822
# Vertices: 4, normals: 0, texture coordinates: 0, faces: 2

o obj132
v 47 3 3.25
v 47 1 4
v 47 1 3.25
v 47 3 4
usemtl mat3
f 823 824 825
f 824 823 826
# Vertices: 4, normals: 0, texture coordinates: 0, faces: 2

o obj133
v 47 3 3
v 47 1 3.25
v 47 1 3
v 47 3 3.25
usemtl mat2
f 827 828 829
f 828 827 830
# Vertices: 4, normals: 0, texture coordinates: 0, faces: 2

o obj134
v 16 4 1
v 16.5 4 2
v 31 4 1
v 16 4 2.5
v 16.5 4 2.5
v 19.5 4 2.5
v 22 4 2
v 19.5 4 2
v 22 4 2.5
v 25 4 2.5
v 27.5 4 2
v 25 4 2
v 27.5 4 2.5
v 30.5 4 2
v 31 4 2.5
v 30.5 4 2.5
usemtl mat0
f 831 832 833
f 832 831 834
f 832 834 835
f 836 837 838
f 837 836 839
f 840 841 842
f 841 840 843
f 833 844 845
f 844 833 832
f 844 832 838
f 844 838 837
f 844 837 842
f 844 842 841
f 845 844 846
# Vertices: 16, normals: 0, texture coordinates: 0, faces: 14

o obj135
v 32 4 1
v 33 4 2
v 44 4 1
v 32 4 2.5
v 33 4 2.5
v 36 4 2.5
v 40 4 2
v 36 4 2
v 40 4 2.5
v 43 4 2
v 44 4 2.5
v 43 4 2.5
usemtl mat0
f 847 848 849
f 848 847 850
f 848 850 851
f 852 853 854
f 853 852 855
f 849 856 857
f 856 849 848
f 856 848 854
f 856 854 853
f 857 856 858
# Vertices: 12, normals: 0, texture coordinates: 0, faces: 10

o obj136
v 3 4 1
v 4 4 2
v 15 4 1
v 3 4 2.5
v 4 4 2.5
v 7 4 2.5
v 11 4 2
v 7 4 2
v 11 4 2.5
v 14 4 2
v 15 4 2.5
v 14 4 2.5
usemtl mat0
f 859 860 861
f 860 859 862
f 860 862 863
f 864 865 866
f 865 864 867
f 861 868 869
f 868 861 860
f 868 860 866
f 868 866 865
f 869 868 870
# Vertices: 12, normals: 0, texture coordinates: 0, faces: 10

o obj137
v 25 4 2.75
v 27.5 4 2.5
v 25 4 2.5
v 27.5 4 2.75
usemtl mat2
f 871 872 873
f 872 871 874
# Vertices: 4, normals: 0, texture coordinates: 0, faces: 2

o obj138
v 19.5 4 2.75
v 22 4 2.5
v 19.5 4 2.5
v 22 4 2.75
usemtl mat2
f 875 876 877
f 876 875 878
# Vertices: 4, normals: 0, texture coordinates: 0, faces: 2

o obj139
v 16 4 2.75
v 16.5 4 2.5
v 16 4 2.5
v 16.5 4 2.75
usemtl mat2
f 879 880 881
f 880 879 882
# Vertices: 4, normals: 0, texture coordinates: 0, faces: 2

o obj140
v 36 4 2.75
v 40 4 2.5
v 36 4 2.5
v 40 4 2.75
usemtl mat2
f 883 884 885
f 884 883 886
# Vertices: 4, normals: 0, texture coordinates: 0, faces: 2

o obj141
v 32 4 2.75
v 33 4 2.5
v 32 4 2.5
v 33 4 2.75
usemtl mat2
f 887 888 889
f 888 887 890
# Vertices: 4, normals: 0, texture coordinates: 0, faces: 2

o obj142
v 7 4 2.75
v 11 4 2.5
v 7 4 2.5
v 11 4 2.75
usemtl mat2
f 891 892 893
f 892 891 894
# Vertices: 4, normals: 0, texture coordinates: 0, faces: 2

o obj143
v 3 4 2.75
v 4 4 2.5
v 3 4 2.5
v 4 4 2.75
usemtl mat2
f 895 896 897
f 896 895 898
# Vertices: 4, normals: 0, texture coordinates: 0, faces: 2

o obj144
v 30.5 4 2.75
v 31 4 2.5
v 30.5 4 2.5
v 31 4 2.75
usemtl mat2
f 899 900 901
f 900 899 902
# Vertices: 4, normals: 0, texture coordinates: 0, faces: 2

o obj145
v 43 4 2.75
v 44 4 2.5
v 43 4 2.5
v 44 4 2.75
usemtl mat2
f 903 904 905
f 904 903 906
# Vertices: 4, normals: 0, texture coordinates: 0, faces: 2

o obj146
v 14 4 2.75
v 15 4 2.5
v 14 4 2.5
v 15 4 2.75
usemtl mat2
f 907 908 909
f 908 907 910
# Vertices: 4, normals: 0, texture coordinates: 0, faces: 2

o obj147
v 25 4 3
v 27.5 4 2.75
v 25 4 2.75
v 27.5 4 3
usemtl mat3
f 911 912 913
f 912 911 914
# Vertices: 4, normals: 0, texture coordinates: 0, faces: 2

o obj148
v 19.5 4 3
v 22 4 2.75
v 19.5 4 2.75
v 22 4 3
usemtl mat3
f 915 916 917
f 916 915 918
# Vertices: 4, normals: 0, texture coordinates: 0, faces: 2

o obj149
v 16 4 3
v 16.5 4 2.75
v 16 4 2.75
v 16.5 4 3
usemtl mat3
f 919 920 921
f 920 919 922
# Vertices: 4, normals: 0, texture coordinates: 0, faces: 2

o obj150
v 36 4 3
v 40 4 2.75
v 36 4 2.75
v 40 4 3
usemtl mat3
f 923 924 925
f 924 923 926
# Vertices: 4, normals: 0, texture coordinates: 0, faces: 2

o obj151
v 32 4 3
v 33 4 2.75
v 32 4 2.75
v 33 4 3
usemtl mat3
f 927 928 929
f 928 927 930
# Vertices: 4, normals: 0, texture coordinates: 0, faces: 2

o obj152
v 7 4 3
v 11 4 2.75
v 7 4 2.75
v 11 4 3
usemtl mat3
f 931 932 933
f 932 931 934
# Vertices: 4, normals: 0, texture coordinates: 0, faces: 2

o obj153
v 3 4 3
v 4 4 2.75
v 3 4 2.75
v 4 4 3
usemtl mat3
f 935 936 937
f 936 935 938
# Vertices: 4, normals: 0, texture coordinates: 0, faces: 2

o obj154
v 30.5 4 3
v 31 4 2.75
v 30.5 4 2.75
v 31 4 3
usemtl mat3
f 939 940 941
f 940 939 942
# Vertices: 4, normals: 0, texture coordinates: 0, faces: 2

o obj155
v 43 4 3
v 44 4 2.75
v 43 4 2.75
v 44 4 3
usemtl mat3
f 943 944 945
f 944 943 946
# Vertices: 4, normals: 0, texture coordinates: 0, faces: 2

o obj156
v 14 4 3
v 15 4 2.75
v 14 4 2.75
v 15 4 3
usemtl mat3
f 947 948 949
f 948 947 950
# Vertices: 4, normals: 0, texture coordinates: 0, faces: 2

o obj157
v 25 4 3.25
v 27.5 4 3
v 25 4 3
v 27.5 4 3.25
usemtl mat2
f 951 952 953
f 952 951 954
# Vertices: 4, normals: 0, texture coordinates: 0, faces: 2

o obj158
v 19.5 4 3.25
v 22 4 3
v 19.5 4 3
v 22 4 3.25
usemtl mat2
f 955 956 957
f 956 955 958
# Vertices: 4, normals: 0, texture coordinates: 0, faces: 2

o obj159
v 16 4 3.25
v 16.5 4 3
v 16 4 3
v 16.5 4 3.25
usemtl mat2
f 959 960 961
f 960 959 962
# Vertices: 4, normals: 0, texture coordinates: 0, faces: 2

o obj160
v 36 4 3.25
v 40 4 3
v 36 4 3
v 40 4 3.25
usemtl mat2
f 963 964 965
f 964 963 966
# Vertices: 4, normals: 0, texture coordinates: 0, faces: 2

o obj161
v 32 4 3.25
v 33 4 3
v 32 4 3
v 33 4 3.25
usemtl mat2
f 967 968 969
f 968 967 970
# Vertices: 4, normals: 0, texture coordinates: 0, faces: 2

o obj162
v 7 4 3.25
v 11 4 3
v 7 4 3
v 11 4 3.25
usemtl mat2
f 971 972 973
f 972 971 974
# Vertices: 4, normals: 0, texture coordinates: 0, faces: 2

o obj163
v 3 4 3.25
v 4 4 3
v 3 4 3
v 4 4 3.25
usemtl mat2
f 975 976 977
f 976 975 978
# Vertices: 4, normals: 0, texture coordinates: 0, faces: 2

o obj164
v 30.5 4 3.25
v 31 4 3
v 30.5 4 3
v 31 4 3.25
usemtl mat2
f 979 980 981
f 980 979 982
# Vertices: 4, normals: 0, texture coordinates: 0, faces: 2

o obj165
v 43 4 3.25
v 44 4 3
v 43 4 3
v 44 4 3.25
usemtl mat2
f 983 984 985
f 984 983 986
# Vertices: 4, normals: 0, texture coordinates: 0, faces: 2

o obj166
v 14 4 3.25
v 15 4 3
v 14 4 3
v 15 4 3.25
usemtl mat2
f 987 988 989
f 988 987 990
# Vertices: 4, normals: 0, texture coordinates: 0, faces: 2

o obj167
v 0 3 2.5
v 3 4 1
v 0 3 1
v 3 4 2.5
usemtl mat0
f 991 992 993
f 992 991 994
# Vertices: 4, normals: 0, texture coordinates: 0, faces: 2

o obj168
v 0 3 2.75
v 3 4 2.5
v 0 3 2.5
v 3 4 2.75
usemtl mat2
f 995 996 997
f 996 995 998
# Vertices: 4, normals: 0, texture coordinates: 0, faces: 2

o obj169
v 0 3 3
v 3 4 2.75
v 0 3 2.75
v 3 4 3
usemtl mat3
f 999 1000 1001
f 1000 999 1002
# Vertices: 4, normals: 0, texture coordinates: 0, faces: 2

o obj170
v 0 3 3.25
v 3 4 3
v 0 3 3
v 3 4 3.25
usemtl mat2
f 1003 1004 1005
f 1004 1003 1006
# Vertices: 4, normals: 0, texture coordinates: 0, faces: 2

o obj171
v 0 3 2.5
v 0 1 1
v 0 1 2.5
v 0 3 1
usemtl mat0
f 1007 1008 1009
f 1008 1007 1010
# Vertices: 4, normals: 0, texture coordinates: 0, faces: 2

o obj172
v 0 3 3.25
v -0 1 3
v -0 1 3.25
v 0 3 3
usemtl mat2
f 1011 1012 1013
f 1012 1011 1014
# Vertices: 4, normals: 0, texture coordinates: 0, faces: 2

o obj173
v 0 3 3
v 0 1 2.75
v -0 1 3
v 0 3 2.75
usemtl mat3
f 1015 1016 1017
f 1016 1015 1018
# Vertices: 4, normals: 0, texture coordinates: 0, faces: 2

o obj174
v 0 3 4
v -0 1 3.25
v 0 1 4
v 0 3 3.25
usemtl mat3
f 1019 1020 1021
f 1020 1019 1022
# Vertices: 4, normals: 0, texture coordinates: 0, faces: 2

